<?xml version="1.0" standalone="no"?>
<!DOCTYPE svg PUBLIC "-//W3C//DTD SVG 1.1//EN" "http://www.w3.org/Graphics/SVG/1.1/DTD/svg11.dtd" >
<svg xmlns="http://www.w3.org/2000/svg" xmlns:xlink="http://www.w3.org/1999/xlink" version="1.1">
<metadata></metadata>
<defs>
<font id="atrotisserifregular" horiz-adv-x="1062" >
<font-face units-per-em="2048" ascent="1638" descent="-410" />
<missing-glyph horiz-adv-x="608" />
<glyph horiz-adv-x="0" />
<glyph unicode="&#xd;" horiz-adv-x="608" />
<glyph unicode=" "  horiz-adv-x="608" />
<glyph unicode="&#x09;" horiz-adv-x="608" />
<glyph unicode="&#xa0;" horiz-adv-x="608" />
<glyph unicode="!" horiz-adv-x="645" d="M268 109q0 53 36 91t93 38q55 0 92 -37t37 -92t-36.5 -92t-92.5 -37q-55 0 -92 37t-37 92zM287 1274q0 53 30.5 81.5t79.5 28.5t80 -27.5t31 -82.5l-4 -66l-62 -841h-90l-61 841z" />
<glyph unicode="&#x22;" horiz-adv-x="835" d="M143 1272q0 51 33 81.5t88 30.5t92 -34.5t37 -106.5t-40 -155.5t-105 -145.5h-68q35 39 65.5 89t30.5 99q0 35 -40 35q-43 0 -68 29t-25 78zM483 1272q0 51 33 81.5t88 30.5t92 -34.5t37 -106.5t-40 -155.5t-105 -145.5h-68q35 39 65.5 89t30.5 99q0 35 -41 35 q-43 0 -67.5 29t-24.5 78z" />
<glyph unicode="#" horiz-adv-x="1177" d="M121 442l22 84h197l57 207h-196l22 84h197l119 438h135l-119 -438h166l119 438h135l-119 -438h201l-23 -84h-200l-56 -207h201l-23 -84h-202l-119 -442h-135l118 442h-165l-119 -442h-135l118 442h-196zM477 526h164l57 207h-166z" />
<glyph unicode="$" horiz-adv-x="1099" d="M111 227q0 45 28.5 74t75.5 29q51 0 73.5 -29t29 -87t47.5 -108.5t131 -50.5v592q-172 55 -269.5 119.5t-97.5 218.5q0 182 118 262t249 80v146h79v-146q117 0 245 -54t128 -175q0 -41 -26.5 -72t-71.5 -31q-49 0 -70.5 27t-36 93.5t-43 104t-125.5 37.5v-546 q199 -68 303.5 -133.5t104.5 -233.5q0 -190 -129 -277t-279 -87v-164h-79v164q-127 0 -256 64.5t-129 182.5zM301 985q0 -109 54.5 -165t140.5 -83v520q-92 -12 -143.5 -78.5t-51.5 -193.5zM575 55q98 0 167 75t69 208q0 127 -64.5 185.5t-171.5 99.5v-568z" />
<glyph unicode="%" horiz-adv-x="1671" d="M45 834q0 205 71.5 323.5t243.5 118.5q168 0 242 -120t74 -322q0 -205 -72 -324t-244 -119q-168 0 -241.5 120t-73.5 323zM180 834q0 -152 35.5 -262.5t144.5 -110.5q106 0 143.5 113.5t37.5 259.5q0 203 -49.5 287.5t-131.5 84.5q-106 0 -143 -108.5t-37 -263.5zM573 0 l426 1255h99l-426 -1255h-99zM993 422q0 205 72 323.5t244 118.5q170 0 243.5 -119.5t73.5 -322.5q0 -207 -72.5 -324.5t-244.5 -117.5q-168 0 -242 119.5t-74 322.5zM1128 422q0 -152 36 -262.5t145 -110.5q106 0 144 112.5t38 260.5q0 152 -38 262.5t-144 110.5 t-143.5 -108.5t-37.5 -264.5z" />
<glyph unicode="&#x26;" horiz-adv-x="1404" d="M137 354q0 158 61.5 240t186.5 111q-98 35 -166.5 97t-68.5 187q0 162 109.5 245t270.5 83q109 0 202 -40t93 -124q0 -37 -25.5 -64.5t-70.5 -27.5q-76 0 -100.5 94t-120.5 94q-84 0 -130 -69.5t-46 -175.5q0 -131 59.5 -197t212.5 -66h340v346l160 95v-441h231v-75h-231 v-443q0 -86 30.5 -131t118.5 -45q45 0 82 14v-65q-35 -8 -64.5 -12t-78.5 -4q-156 0 -202 73.5t-46 229.5v383h-340q-129 0 -207 -60.5t-78 -238.5q0 -156 74 -238t211 -82q51 0 84 8t105 33v-72q-20 -6 -81 -21t-149 -15q-211 0 -318.5 97t-107.5 277z" />
<glyph unicode="'" horiz-adv-x="493" d="M143 1272q0 51 33 81.5t88 30.5t92 -34.5t37 -106.5t-40 -155.5t-105 -145.5h-68q35 39 65.5 89t30.5 99q0 35 -40 35q-43 0 -68 29t-25 78z" />
<glyph unicode="(" horiz-adv-x="569" d="M137 594q0 262 21.5 438t102.5 307t251 150v-66q-94 -49 -137 -162.5t-55.5 -273.5t-12.5 -393q0 -377 35 -567.5t170 -262.5v-65q-166 18 -248 149.5t-104.5 313.5t-22.5 432z" />
<glyph unicode=")" horiz-adv-x="569" d="M57 -236q94 49 137.5 161t55.5 273.5t12 395.5q0 256 -11 404.5t-54 261t-140 163.5v66q168 -18 249 -149.5t103.5 -314.5t22.5 -431q0 -264 -21.5 -439t-102.5 -306.5t-251 -149.5v65z" />
<glyph unicode="*" horiz-adv-x="720" d="M37 1104q0 31 22.5 51.5t51.5 20.5q16 0 28.5 -4.5t20.5 -6.5l174 -49l4 4l-133 121q-14 14 -28.5 29.5t-14.5 38.5q0 31 20.5 53t55.5 22t53 -21.5t26 -57.5l41 -175l48 175q8 39 24 59t55 20q33 0 54.5 -23.5t21.5 -51.5q0 -23 -18.5 -42.5t-28.5 -27.5l-131 -119l4 -4 l178 47q14 4 24.5 7.5t18.5 3.5q76 0 76 -70q0 -33 -21.5 -54.5t-54.5 -21.5q-14 0 -26.5 4t-18.5 6l-176 54l-4 -5l135 -118q12 -12 29.5 -27.5t17.5 -44.5q0 -33 -23.5 -52.5t-52.5 -19.5q-41 0 -55 21.5t-24 56.5l-48 174l-49 -176q-10 -39 -24.5 -57.5t-52.5 -18.5 q-33 0 -54.5 21.5t-21.5 54.5q0 27 10 37t35 31l133 118l-4 5l-180 -54l-37 -6q-31 0 -55.5 18.5t-24.5 53.5z" />
<glyph unicode="+" horiz-adv-x="1177" d="M117 420v121h405v387h133v-387h406v-121h-406v-420h-133v420h-405z" />
<glyph unicode="," horiz-adv-x="493" d="M96 117q0 57 40 89t93 32q76 0 112 -49.5t36 -114.5q0 -94 -69.5 -203t-129.5 -156h-72q41 37 87.5 113t46.5 141q0 35 -38 40t-72 27.5t-34 80.5z" />
<glyph unicode="-" horiz-adv-x="835" d="M111 432v129h614v-129h-614z" />
<glyph unicode="." horiz-adv-x="493" d="M117 109q0 55 36.5 92t92.5 37q55 0 92 -37t37 -92t-37 -92t-92 -37t-92 37t-37 92z" />
<glyph unicode="/" horiz-adv-x="684" d="M80 -281l395 1784h129l-395 -1784h-129z" />
<glyph unicode="0" d="M70 627q0 289 104.5 469t357.5 180q250 0 356.5 -182.5t106.5 -466.5q0 -287 -105.5 -467t-357.5 -180q-250 0 -356 181t-106 466zM254 627q0 -307 76.5 -434t201.5 -127q158 0 218.5 165.5t60.5 395.5q0 309 -77 436t-202 127q-158 0 -218 -166t-60 -397z" />
<glyph unicode="1" d="M289 1067v35l317 174h64v-1020q0 -139 34.5 -180t133.5 -41v-35h-527v35q127 0 163 39t36 182v684q0 84 -20.5 120t-81.5 36q-25 0 -60 -9.5t-59 -19.5z" />
<glyph unicode="2" d="M131 0v82q104 94 233.5 232.5t236 311.5t106.5 326q0 104 -58.5 171t-161.5 67q-119 0 -180 -65.5t-84 -147.5h-78q10 109 103.5 204t261.5 95q178 0 278.5 -92t100.5 -273q0 -156 -124 -323.5t-261 -288.5t-232 -201h371q123 0 169 40t65 155h51l-17 -293h-780z" />
<glyph unicode="3" d="M102 14v80q59 -14 113.5 -21t106.5 -7q164 0 276.5 78.5t112.5 230.5q0 143 -74 195.5t-199 52.5v86q109 0 180.5 45t71.5 194q0 113 -62.5 177.5t-162.5 64.5q-84 0 -150.5 -43t-101.5 -148h-78q20 111 101 194t260 83q168 0 272 -86t104 -240q0 -119 -61 -191.5 t-162 -94.5q113 -29 178.5 -102t65.5 -216q0 -186 -147.5 -276t-358.5 -90q-70 0 -139.5 8t-145.5 26z" />
<glyph unicode="4" d="M86 360v95l549 800h160v-796h225v-99h-225v-174q0 -74 28.5 -112.5t126.5 -38.5v-35h-471v35q78 0 117 28.5t39 122.5v174h-549zM215 459h420v612z" />
<glyph unicode="5" d="M158 18v84q55 -18 104 -27t119 -9q176 0 290.5 91t114.5 265q0 94 -67.5 170t-179.5 76q-82 0 -129.5 -29t-92.5 -80h-114l37 696h639v-98h-494l-25 -461q49 29 105.5 49.5t140.5 20.5q156 0 259.5 -99.5t103.5 -256.5q0 -209 -149.5 -319.5t-366.5 -110.5 q-88 0 -151.5 10t-143.5 28z" />
<glyph unicode="6" d="M131 592q0 319 123 501.5t418 182.5q53 0 110.5 -6t130.5 -21v-82q-76 23 -170 23q-254 0 -342 -166t-88 -406q53 61 121 101.5t187 40.5q170 0 264 -102.5t94 -284.5q0 -190 -109.5 -291.5t-312.5 -101.5q-242 0 -334 173t-92 439zM313 508q20 -236 75.5 -339 t178.5 -103q119 0 174.5 85t55.5 214q0 137 -56.5 223t-165.5 86q-98 0 -153 -47t-109 -119z" />
<glyph unicode="7" d="M129 963l16 292h783v-79l-484 -1176h-192l475 1157h-283q-121 0 -185 -32.5t-79 -161.5h-51z" />
<glyph unicode="8" d="M121 336q0 150 66.5 220.5t181.5 96.5q-104 31 -164 97.5t-60 197.5q0 145 107.5 236.5t275.5 91.5q174 0 278.5 -86t104.5 -242q0 -135 -64.5 -199.5t-160.5 -91.5q139 -45 194.5 -126.5t55.5 -194.5q0 -184 -107.5 -270t-300.5 -86t-300 93t-107 263zM303 336 q0 -123 56 -196.5t169 -73.5q111 0 168.5 73.5t57.5 196.5q0 121 -57.5 197.5t-168.5 76.5t-168 -76.5t-57 -197.5zM328 948q0 -106 49 -179t151 -73q104 0 152.5 70t48.5 182q0 106 -50 174t-151 68q-96 0 -148 -69.5t-52 -172.5z" />
<glyph unicode="9" d="M88 883q0 193 110.5 293t311.5 100q242 0 334 -173t92 -441q0 -319 -123 -500.5t-418 -181.5q-86 0 -160.5 12t-123.5 26v82q47 -18 100 -26t111 -8q199 0 315.5 128t116.5 441q-55 -61 -123 -100t-187 -39q-168 0 -262 102t-94 285zM270 891q0 -135 55 -222t164 -87 q98 0 155.5 48t109.5 115q-16 180 -57.5 312.5t-196.5 132.5q-119 0 -174.5 -85t-55.5 -214z" />
<glyph unicode=":" horiz-adv-x="608" d="M231 109q0 55 37 92t92 37t92 -37t37 -92t-36.5 -92t-92.5 -37q-55 0 -92 37t-37 92zM231 834q0 55 37 92t92 37t92 -37t37 -92t-36.5 -92t-92.5 -37q-55 0 -92 37t-37 92z" />
<glyph unicode=";" horiz-adv-x="608" d="M246 117q0 57 40 89t93 32q76 0 111.5 -49.5t35.5 -114.5q0 -94 -69.5 -203t-128.5 -156h-72q41 37 87 113t46 141q0 35 -38 40t-71.5 27.5t-33.5 80.5zM260 834q0 55 37 92t92 37t92 -37t37 -92t-37 -92t-92 -37t-92 37t-37 92z" />
<glyph unicode="&#x3c;" horiz-adv-x="1177" d="M115 401v127l946 402v-123l-807 -342l807 -342v-123z" />
<glyph unicode="=" horiz-adv-x="1177" d="M117 274v121h944v-121h-944zM117 565v121h944v-121h-944z" />
<glyph unicode="&#x3e;" horiz-adv-x="1177" d="M115 0v123l809 342l-809 342v123l946 -402v-127z" />
<glyph unicode="?" horiz-adv-x="948" d="M104 1217q0 94 114 130.5t237 36.5q168 0 278.5 -69.5t110.5 -222.5q0 -150 -131 -277t-217 -209q-78 -82 -78 -166v-73h-92v135q0 76 15 119t52 94q109 113 192 205t83 192q0 96 -63.5 144.5t-145.5 48.5q-102 0 -152.5 -88.5t-109.5 -88.5q-43 0 -68 27t-25 62z M252 109q0 55 37 92t92 37t92 -37t37 -92t-37 -92t-92 -37t-92 37t-37 92z" />
<glyph unicode="@" horiz-adv-x="2048" d="M195 406q0 365 274 639t645 274q313 0 526 -186.5t213 -475.5q0 -270 -177 -463.5t-398 -193.5q-84 0 -116 46t-32 99q-76 -76 -131 -104.5t-135 -28.5q-119 0 -195.5 77t-76.5 216q0 231 167 450.5t363 219.5q104 0 155.5 -47t82.5 -105l45 111h178l-172 -424 q-45 -117 -85 -220.5t-40 -127.5q0 -55 62 -56q135 0 273 156t138 395q0 254 -186.5 405.5t-452.5 151.5q-297 0 -540.5 -251.5t-243.5 -554.5q0 -256 194.5 -421t518.5 -165q188 0 326 51t272 156l55 -47q-100 -109 -294 -181.5t-368 -72.5q-369 0 -607 189t-238 489z M756 233q0 -70 37.5 -103.5t103.5 -33.5q84 0 130 48.5t109.5 150.5t110.5 256t47 213q0 51 -33.5 91t-93.5 40q-139 0 -275 -246t-136 -416z" />
<glyph unicode="A" horiz-adv-x="1404" d="M-20 0v41q111 0 152.5 45t92.5 182l424 1116h115l426 -1132q41 -106 91 -158.5t144 -52.5v-41h-532v41q61 0 103 15.5t42 52.5q0 14 -6 40.5t-12 45.5l-96 258h-514l-88 -244q-12 -35 -18.5 -57.5t-6.5 -38.5q0 -41 39 -56.5t106 -15.5v-41h-462zM438 532h457l-227 625z " />
<glyph unicode="B" horiz-adv-x="1214" d="M29 0v41q98 0 138 29.5t40 138.5v946q0 106 -41 137t-137 31v41h503q201 0 347.5 -57.5t146.5 -270.5q0 -137 -70.5 -205.5t-171.5 -101.5q131 -27 221.5 -109.5t90.5 -252.5q0 -223 -157 -295t-376 -72h-534zM389 252q0 -119 24.5 -145.5t149.5 -26.5q147 0 243.5 66.5 t96.5 220.5q0 195 -118.5 254t-301.5 59h-94v-428zM389 760h94q145 0 248 46t103 216q0 145 -81 203.5t-221 58.5q-96 0 -119.5 -27.5t-23.5 -144.5v-352z" />
<glyph unicode="C" horiz-adv-x="1177" d="M117 727q0 313 125 485t436 172q115 0 205 -15t188 -42l19 -321h-52q-37 156 -134 227.5t-228 71.5q-217 0 -287 -166t-70 -396q0 -272 103.5 -471.5t402.5 -199.5q96 0 143.5 11t121.5 40v-88q-74 -27 -166.5 -41t-200.5 -14q-299 0 -452.5 202.5t-153.5 544.5z" />
<glyph unicode="D" horiz-adv-x="1329" d="M33 0v41q98 0 138 29.5t40 138.5v946q0 106 -41 137t-137 31v41h479q205 0 354.5 -48t247.5 -198.5t98 -437.5q0 -285 -100 -434.5t-250.5 -197.5t-349.5 -48h-479zM393 252q0 -111 20.5 -141.5t98.5 -30.5q262 0 380 144.5t118 455.5q0 301 -111 452.5t-387 151.5 q-80 0 -99.5 -25.5t-19.5 -146.5v-860z" />
<glyph unicode="E" horiz-adv-x="1101" d="M33 0v41q98 0 138 29.5t40 138.5v946q0 106 -41 137t-137 31v41h928l14 -250h-51q-18 92 -72.5 131t-165.5 39h-180q-78 0 -95.5 -27.5t-17.5 -144.5v-358h264q104 0 145.5 34.5t41.5 137.5h43v-424h-43q0 88 -43 130t-144 42h-264v-422q0 -121 17.5 -146.5t95.5 -25.5 h196q119 0 173.5 41t78.5 149h52l-15 -270h-958z" />
<glyph unicode="F" d="M33 0v41q98 0 138 29.5t40 138.5v946q0 106 -41 137t-137 31v41h928l14 -250h-51q-27 98 -79 134t-159 36h-180q-78 0 -95.5 -27.5t-17.5 -144.5v-358h264q104 0 145.5 34.5t41.5 137.5h43v-424h-43q0 88 -43 130t-144 42h-264v-465q0 -106 45 -137t158 -31v-41h-563z " />
<glyph unicode="G" horiz-adv-x="1366" d="M117 717q0 346 130 506.5t474 160.5q117 0 203 -14t190 -41l19 -323h-52q-20 117 -109 208t-276 91q-236 0 -306.5 -156t-70.5 -406q0 -272 97.5 -471.5t382.5 -199.5q63 0 88.5 3t75.5 13v459q0 104 -45.5 136t-133.5 32v41h533v-41q-92 0 -132 -30t-40 -138v-508 q-72 -25 -169 -42t-218 -17q-315 0 -478 190t-163 547z" />
<glyph unicode="H" horiz-adv-x="1366" d="M33 0v41q98 0 138 29.5t40 138.5v946q0 106 -41 137t-137 31v41h538v-41q-98 0 -138 -29.5t-40 -138.5v-412h580v412q0 106 -41 137t-137 31v41h538v-41q-98 0 -138 -29.5t-40 -138.5v-946q0 -106 41 -137t137 -31v-41h-538v41q98 0 138 29.5t40 138.5v455h-580v-455 q0 -106 41 -137t137 -31v-41h-538z" />
<glyph unicode="I" horiz-adv-x="608" d="M35 0v41q98 0 138 29.5t40 138.5v946q0 106 -41 137t-137 31v41h538v-41q-98 0 -138 -29.5t-40 -138.5v-946q0 -106 41 -137t137 -31v-41h-538z" />
<glyph unicode="J" horiz-adv-x="872" d="M27 143q0 47 30.5 66.5t69.5 19.5q74 0 118 -85t105 -85q96 0 129 77t33 304v715q0 106 -36 137t-120 31v41h494v-41q-86 0 -121 -29.5t-35 -138.5v-715q0 -215 -64.5 -337.5t-314.5 -122.5q-115 0 -201.5 41.5t-86.5 121.5z" />
<glyph unicode="K" horiz-adv-x="1253" d="M20 0v41q98 0 138.5 29.5t40.5 138.5v946q0 106 -41 137t-138 31v41h539v-41q-98 0 -138 -29.5t-40 -138.5v-410l410 455q18 20 33.5 43t15.5 35q0 45 -119 45v41h475v-41q-88 0 -150.5 -27.5t-140.5 -111.5l-381 -416l426 -518q78 -96 158 -152.5t174 -56.5v-41h-553v41 q115 0 115 49q0 29 -70 115l-389 481l-4 -477q0 -106 41 -137t137 -31v-41h-539z" />
<glyph unicode="L" horiz-adv-x="1026" d="M35 0v41q98 0 138 29.5t40 138.5v946q0 106 -41 137t-137 31v41h538v-41q-98 0 -138 -29.5t-40 -138.5v-946q0 -88 22.5 -108.5t117.5 -20.5h137q125 0 172 45t74 170h51l-15 -295h-919z" />
<glyph unicode="M" horiz-adv-x="1708" d="M31 0v41q98 0 138 29.5t40 138.5v946q0 106 -41 137t-137 31v41h426l401 -1165l404 1165h421v-41q-98 0 -138 -29.5t-40 -138.5v-946q0 -106 41 -137t137 -31v-41h-526v41q98 0 138 29.5t40 138.5v1036l-430 -1245h-149l-426 1245l-4 -1036q0 -106 41 -137t137 -31v-41 h-473z" />
<glyph unicode="N" horiz-adv-x="1366" d="M41 0v41q98 0 138 29.5t40 138.5v946q0 106 -41 137t-137 31v41h373l630 -1100l5 891q0 106 -41 137t-138 31v41h473v-41q-98 0 -138 -29.5t-40 -138.5v-1155h-151l-674 1176l-4 -967q0 -106 41 -137t137 -31v-41h-473z" />
<glyph unicode="O" horiz-adv-x="1290" d="M117 682q0 330 119.5 516t408.5 186q287 0 408 -187t121 -515t-121 -515t-408 -187t-407.5 187t-120.5 515zM319 682q0 -373 85 -498t241 -125q199 0 262.5 165t63.5 458q0 373 -85 498t-241 125q-199 0 -262.5 -165t-63.5 -458z" />
<glyph unicode="P" horiz-adv-x="1138" d="M27 0v41q98 0 138 29.5t40 138.5v946q0 106 -41 137t-137 31v41h534q240 0 363 -69.5t123 -284.5q0 -231 -152 -292t-397 -61h-111v-448q0 -106 41 -137t137 -31v-41h-538zM387 737h111q182 0 269 54.5t87 218.5q0 145 -74.5 209.5t-218.5 64.5q-123 0 -148.5 -23.5 t-25.5 -144.5v-379z" />
<glyph unicode="Q" horiz-adv-x="1290" d="M117 682q0 330 119.5 516t408.5 186q287 0 408 -187t121 -515q0 -299 -94.5 -483.5t-321.5 -212.5q37 -63 113.5 -104.5t195.5 -41.5q29 0 59.5 6.5t47.5 10.5v-62q-88 -35 -181 -35q-199 0 -304 59.5t-163 166.5q-221 39 -315 221t-94 475zM319 682q0 -377 85 -502 t241 -125q199 0 262.5 166t63.5 461q0 373 -85 498t-241 125q-199 0 -262.5 -165t-63.5 -458z" />
<glyph unicode="R" horiz-adv-x="1214" d="M27 0v41q98 0 138 29.5t40 138.5v946q0 106 -41 137t-137 31v41h542q199 0 329 -68.5t130 -244.5t-107.5 -254t-250.5 -90l270 -459q80 -133 131 -170t121 -37v-41h-311l-410 692h-84v-483q0 -106 42 -137t138 -31v-41h-540zM387 772q276 0 362.5 70.5t86.5 208.5 q0 123 -89.5 178t-226.5 55q-90 0 -111.5 -23.5t-21.5 -111.5v-377z" />
<glyph unicode="S" horiz-adv-x="1101" d="M137 307h51q14 -94 97.5 -164.5t234.5 -70.5q131 0 214 74.5t83 183.5q0 135 -181 237.5t-349 196.5q-70 55 -101.5 115.5t-31.5 158.5q0 174 127 260t333 86q96 0 162 -8t156 -26l14 -281h-51q-16 96 -93 166t-227 70q-109 0 -183.5 -61.5t-74.5 -162.5q0 -131 158 -212 t264 -134q143 -84 207 -159.5t64 -213.5q0 -186 -142.5 -284t-363.5 -98q-109 0 -221.5 18t-130.5 20z" />
<glyph unicode="T" d="M4 1085l14 279h1026l15 -279h-51q-10 102 -69.5 150.5t-205.5 48.5h-110v-1075q0 -106 45 -137t151 -31v-41h-575v41q106 0 151 29.5t45 138.5v1075h-125q-143 0 -192 -47t-68 -152h-51z" />
<glyph unicode="U" horiz-adv-x="1329" d="M8 1323v41h539v-41q-98 0 -138 -29.5t-40 -138.5v-682q0 -186 66.5 -300t248.5 -114q205 0 273.5 103.5t68.5 310.5v682q0 106 -41 137t-137 31v41h473v-41q-98 0 -138 -29.5t-40 -138.5v-682q0 -250 -88 -371.5t-379 -121.5q-295 0 -392.5 122.5t-97.5 370.5v682 q0 106 -41 137t-137 31z" />
<glyph unicode="V" horiz-adv-x="1366" d="M-31 1323v41h533v-41q-80 0 -110 -19.5t-30 -62.5q0 -33 29 -115l326 -893l348 943q10 25 15 46t5 33q0 37 -38.5 52.5t-110.5 15.5v41h461v-41q-90 0 -141.5 -55.5t-92.5 -163.5l-415 -1124h-123l-428 1159q-39 104 -89.5 144t-138.5 40z" />
<glyph unicode="W" horiz-adv-x="1859" d="M-6 1323v41h498v-41q-68 0 -105 -23.5t-37 -87.5q0 -31 4 -52t15 -60l184 -821l354 1085h92l363 -1085l174 806q6 29 14.5 76t8.5 68q0 53 -33 73.5t-111 20.5v41h451v-41q-109 0 -149 -55.5t-70 -204.5l-232 -1083h-125l-366 1085l-355 -1085h-125l-254 1112 q-27 113 -54 172t-142 59z" />
<glyph unicode="X" horiz-adv-x="1443" d="M47 0v41q96 0 155.5 38t112.5 122l312 491l-301 488q-49 82 -100.5 112.5t-145.5 30.5v41h555v-41q-125 0 -125 -68q0 -25 10 -49t31 -57l201 -324l211 334q29 45 37 62.5t8 38.5q0 37 -37 50t-107 13v41h490v-41q-86 0 -143.5 -33t-147.5 -168l-252 -395l328 -526 q53 -86 106 -123t152 -37v-41h-555v41q131 0 131 63q0 18 -13.5 45t-39.5 72l-234 375l-254 -414q-31 -47 -31 -73q0 -39 34 -53.5t97 -14.5v-41h-485z" />
<glyph unicode="Y" horiz-adv-x="1290" d="M-20 1323v41h563v-41q-76 0 -104.5 -15.5t-28.5 -60.5q0 -27 34 -86l230 -397l241 397q20 31 31.5 54.5t11.5 37.5q0 70 -129 70v41h482v-41q-86 0 -143.5 -33t-110.5 -121l-324 -530v-430q0 -106 41 -137t137 -31v-41h-538v41q98 0 138 29.5t40 138.5v430l-320 530 q-53 88 -107 121t-144 33z" />
<glyph unicode="Z" horiz-adv-x="1177" d="M90 0v88l739 1196h-325q-170 0 -230.5 -36t-97.5 -154h-51l14 270h926v-86l-741 -1198h383q176 0 244.5 46t88.5 171h52l-15 -297h-987z" />
<glyph unicode="[" horiz-adv-x="608" d="M193 -283v1784h387v-78h-113q-76 0 -97.5 -27.5t-21.5 -119.5v-1370q0 -66 22.5 -88.5t96.5 -22.5h113v-78h-387z" />
<glyph unicode="\" horiz-adv-x="684" d="M80 1503h129l395 -1784h-129z" />
<glyph unicode="]" horiz-adv-x="608" d="M27 -205h114q72 0 94.5 22.5t22.5 88.5v1370q0 92 -20.5 119.5t-96.5 27.5h-114v78h387v-1784h-387v78z" />
<glyph unicode="^" horiz-adv-x="759" d="M123 1051l196 313h121l197 -313h-127l-131 209l-129 -209h-127z" />
<glyph unicode="_" horiz-adv-x="1024" d="M0 -133h1024v-103h-1024v103z" />
<glyph unicode="`" horiz-adv-x="614" d="M102 1360q0 23 22.5 43t49.5 20q53 0 72.5 -16t34.5 -68l69 -233h-88l-121 168q-23 33 -31 49t-8 37z" />
<glyph unicode="a" horiz-adv-x="987" d="M109 211q0 190 144 239.5t396 71.5v78q0 143 -29.5 219t-144.5 76q-86 0 -114.5 -30.5t-28.5 -88.5q0 -55 -32 -80.5t-64 -25.5q-43 0 -71 25.5t-28 66.5q0 90 109.5 146t230.5 55q197 0 264.5 -82t67.5 -244v-508q0 -53 19.5 -74.5t68.5 -21.5q12 0 29.5 3t25.5 5v-43 q-18 -4 -64 -11t-85 -7q-84 0 -119 38.5t-35 110.5q-53 -74 -123.5 -111.5t-171.5 -37.5q-106 0 -175.5 65.5t-69.5 165.5zM291 244q0 -78 42 -128t97 -50q96 0 157.5 79.5t61.5 188.5v121q-127 0 -242.5 -43t-115.5 -168z" />
<glyph unicode="b" d="M18 1339v35l316 49v-618q35 59 97.5 108.5t150.5 49.5q199 0 287.5 -138.5t88.5 -353.5t-88 -353t-288 -138q-84 0 -155 34.5t-93 69.5l-109 -84h-51v1206q0 78 -43 102.5t-113 30.5zM334 471q0 -217 48 -320.5t173 -103.5t173 125t48 299q0 166 -50 291t-171 125 q-115 0 -168 -115t-53 -301z" />
<glyph unicode="c" horiz-adv-x="911" d="M96 500q0 215 107.5 339t335.5 124q127 0 224 -44.5t97 -146.5q0 -45 -27.5 -70.5t-68.5 -25.5q-51 0 -72.5 31.5t-34 85t-46 78t-99.5 24.5q-111 0 -178.5 -83t-67.5 -247q0 -205 125 -357.5t330 -152.5q27 0 43 2t72 15v-60q-45 -16 -95.5 -24t-124.5 -8 q-262 0 -391 137t-129 383z" />
<glyph unicode="d" d="M102 471q0 215 88.5 353.5t288.5 138.5q86 0 146.5 -49.5t89.5 -108.5l4 401q0 78 -43 102.5t-113 30.5v35l316 49v-1226q0 -82 44 -108t111 -26v-34l-315 -49v151q-20 -49 -90 -100t-150 -51q-199 0 -288 139t-89 352zM285 471q0 -227 61.5 -321.5t159.5 -94.5 q113 0 163 128t50 288q0 168 -52.5 292t-160.5 124q-119 0 -170 -127t-51 -289z" />
<glyph unicode="e" horiz-adv-x="911" d="M94 498q0 231 99.5 348t316.5 117q150 0 250 -86t100 -254v-45h-596q0 -182 99.5 -352.5t326.5 -170.5q37 0 71 4t73 23v-66q-59 -23 -114.5 -29.5t-129.5 -6.5q-240 0 -368 131t-128 387zM264 645h414q0 102 -43 176t-152 74q-102 0 -160.5 -86t-58.5 -164z" />
<glyph unicode="f" horiz-adv-x="684" d="M94 0v35q78 0 117 28.5t39 122.5v688h-156v68h156v90q0 213 80 302t307 89q86 0 155.5 -31.5t69.5 -91.5q0 -47 -27.5 -72.5t-70.5 -25.5q-63 0 -98 77t-101 77q-80 0 -117.5 -53.5t-37.5 -237.5v-123h276v-68h-276v-688q0 -74 28.5 -112.5t126.5 -38.5v-35h-471z" />
<glyph unicode="g" d="M90 -172q0 84 45 132t115 83q-47 29 -67.5 64.5t-20.5 80.5q0 49 27.5 95.5t60.5 83.5q-51 41 -85 101t-34 173q0 180 107.5 251t279.5 71q68 0 112 -11.5t99 -40.5q43 102 84 160.5t123 58.5q43 0 70.5 -25.5t27.5 -72.5q0 -92 -96 -92q-29 0 -55.5 14.5t-36.5 14.5 q-29 0 -45.5 -27t-28.5 -65q45 -49 68.5 -114t23.5 -132q0 -156 -95 -240t-280 -84q-119 0 -186 31q-16 -20 -26.5 -42t-10.5 -50q0 -53 47 -67.5t121 -14.5h242q131 0 228 -41t97 -191q0 -170 -143 -267t-358 -97q-170 0 -290 64.5t-120 195.5zM223 -139q0 -94 79 -160 t208 -66q147 0 252.5 68t105.5 176q0 74 -51 106.5t-137 32.5h-358q-47 -35 -73 -66.5t-26 -90.5zM301 657q0 -127 47.5 -204.5t151.5 -77.5q117 0 155.5 68.5t38.5 174.5q0 125 -48 201t-152 76q-109 0 -151 -66.5t-42 -171.5z" />
<glyph unicode="h" horiz-adv-x="1101" d="M47 0v35q78 0 117 28.5t39 122.5v1020q0 78 -43 102.5t-113 30.5v35l315 49v-731q43 102 120 186.5t210 84.5q150 0 193 -72t43 -238v-467q0 -74 28.5 -112.5t126.5 -38.5v-35h-471v35q76 0 116 29.5t40 121.5v422q0 125 -12.5 190.5t-124.5 65.5q-90 0 -179.5 -140 t-89.5 -288v-250q0 -74 29 -112.5t127 -38.5v-35h-471z" />
<glyph unicode="i" horiz-adv-x="569" d="M68 0v35q78 0 116.5 28.5t38.5 122.5v559q0 82 -44 108t-111 26v34l315 50v-777q0 -74 28.5 -112.5t127.5 -38.5v-35h-471zM180 1268q0 49 34 82.5t83 33.5t83 -33.5t34 -82.5t-34 -83t-83 -34t-83 34t-34 83z" />
<glyph unicode="j" horiz-adv-x="569" d="M-219 -309q0 47 27.5 72.5t70.5 25.5q63 0 100 -77t99 -77q106 0 130.5 64.5t24.5 226.5v819q0 82 -44 108t-111 26v34l315 50v-1049q0 -176 -78.5 -261t-285.5 -85q-106 0 -177 30.5t-71 92.5zM190 1268q0 49 34 82.5t83 33.5t83 -33.5t34 -82.5t-34 -83t-83 -34t-83 34 t-34 83z" />
<glyph unicode="k" horiz-adv-x="1026" d="M41 0v35q78 0 117 28.5t39 122.5v1020q0 78 -42 102.5t-114 30.5v35l315 49v-897l232 271q10 12 25.5 30.5t15.5 34.5q0 45 -92 45v35h407v-35q-92 0 -143 -31.5t-117 -109.5l-186 -215l305 -373q68 -84 116 -113.5t132 -29.5v-35h-469v35q98 0 98 41q0 16 -11.5 35.5 t-29.5 40.5l-279 348l-4 -314q0 -74 29 -112.5t127 -38.5v-35h-471z" />
<glyph unicode="l" horiz-adv-x="569" d="M47 0v35q78 0 117 28.5t39 122.5v1020q0 78 -42 102.5t-114 30.5v35l315 49v-1237q0 -74 29 -112.5t127 -38.5v-35h-471z" />
<glyph unicode="m" horiz-adv-x="1632" d="M70 0v35q78 0 116.5 28.5t38.5 122.5v559q0 80 -45 107t-110 27v34l315 50v-248q55 125 129 186.5t166 61.5q115 0 176.5 -55.5t61.5 -194.5q51 127 129.5 188.5t164.5 61.5q139 0 188.5 -51.5t49.5 -198.5v-527q0 -92 40 -121.5t116 -29.5v-35h-471v35q78 0 116.5 28.5 t38.5 122.5v422q0 133 -25.5 194.5t-105.5 61.5q-88 0 -164.5 -125t-76.5 -301v-252q0 -74 28.5 -112.5t126.5 -38.5v-35h-471v35q78 0 117 28.5t39 122.5v422q0 119 -11.5 187.5t-109.5 68.5q-88 0 -170 -131t-82 -295v-252q0 -74 28.5 -112.5t127.5 -38.5v-35h-471z" />
<glyph unicode="n" horiz-adv-x="1138" d="M72 0v35q78 0 116.5 28.5t38.5 122.5v559q0 80 -45 107t-110 27v34l315 50v-271q45 104 120 187.5t208 83.5q152 0 194.5 -72t42.5 -238v-467q0 -74 29 -112.5t127 -38.5v-35h-471v35q78 0 117 28.5t39 122.5v422q0 125 -12.5 190.5t-125.5 65.5q-92 0 -180 -139 t-88 -287v-252q0 -74 28.5 -112.5t127.5 -38.5v-35h-471z" />
<glyph unicode="o" d="M104 471q0 229 115 360.5t313 131.5q197 0 313 -131.5t116 -360.5t-115 -360t-314 -131q-197 0 -312.5 131t-115.5 360zM287 471q0 -168 54 -296t191 -128t191.5 129t54.5 295q0 168 -54 296t-192 128q-137 0 -191 -129t-54 -295z" />
<glyph unicode="p" d="M31 -397q76 0 115.5 30.5t39.5 120.5v991q0 80 -45 107t-110 27v34l315 50v-152q20 49 90 100.5t148 51.5q199 0 288 -139.5t89 -352.5q0 -217 -88.5 -354t-288.5 -137q-84 0 -144.5 49t-89.5 108l-4 -383q0 -90 40 -120.5t116 -30.5v-35h-471v35zM346 471 q0 -168 51 -292t160 -124q119 0 170 127t51 289q0 227 -61.5 321.5t-159.5 94.5q-111 0 -161 -128t-50 -288z" />
<glyph unicode="q" d="M106 471q0 215 88.5 353.5t288.5 138.5q84 0 155 -35t93 -70l109 84h51v-1188q0 -90 40 -120.5t116 -30.5v-35h-472v35q76 0 116 30.5t40 120.5v383q-37 -61 -99.5 -109t-148.5 -48q-199 0 -288 138t-89 353zM289 471q0 -166 50 -291t171 -125q113 0 167 117t54 299 q0 217 -48 320.5t-173 103.5t-173 -125t-48 -299z" />
<glyph unicode="r" horiz-adv-x="720" d="M63 0v35q78 0 117 28.5t39 122.5v559q0 82 -44 108t-112 26v34l316 50v-220q53 125 119.5 172.5t150.5 47.5q39 0 71 -25t32 -70q0 -43 -29 -69.5t-70 -26.5q-33 0 -69.5 24.5t-46.5 24.5q-45 0 -101.5 -83t-56.5 -242v-310q0 -74 28.5 -112.5t127.5 -38.5v-35h-472z" />
<glyph unicode="s" horiz-adv-x="796" d="M76 244h51q23 -80 75 -138.5t167 -58.5q94 0 148 52.5t54 113.5q0 88 -130 163t-244 138q-59 43 -83 87t-24 108q0 133 98.5 193.5t241.5 60.5q53 0 126 -11.5t110 -23.5l14 -215h-51q-18 72 -64.5 127t-144.5 55q-70 0 -120 -30.5t-50 -98.5q0 -84 109.5 -144.5 t206 -111.5t131 -110.5t34.5 -143.5q0 -131 -101.5 -203.5t-275.5 -72.5q-86 0 -147.5 9t-116.5 27z" />
<glyph unicode="t" horiz-adv-x="645" d="M35 874v68q131 0 201.5 72.5t70.5 234.5h53v-307h265v-68h-265v-647q0 -106 45.5 -143t137.5 -37q25 0 42 3t40 7v-69q-25 -2 -47.5 -5t-51.5 -3q-219 0 -272 59t-53 246v589h-166z" />
<glyph unicode="u" horiz-adv-x="1101" d="M29 879v34l315 50v-629q0 -250 164 -250q98 0 174 117.5t76 261.5v282q0 82 -44 108t-112 26v34l316 50v-766q0 -82 44 -108t111 -26v-34l-315 -49v245q-49 -106 -109.5 -175.5t-202.5 -69.5q-127 0 -194.5 81.5t-67.5 227.5v456q0 82 -44 108t-111 26z" />
<glyph unicode="v" d="M-23 907v35h433v-35q-90 0 -91 -49q0 -18 7.5 -46t19.5 -56l234 -559l206 553q8 23 15.5 47t7.5 41q0 69 -89 69h-3v35h370v-35q-84 0 -120.5 -33.5t-79.5 -148.5l-289 -745h-96l-314 739q-45 104 -83.5 146t-127.5 42z" />
<glyph unicode="w" horiz-adv-x="1480" d="M0 907v35h424v-35q-59 0 -83 -17.5t-24 -49.5q0 -39 13 -80l147 -541l223 723h123l228 -723l131 508q4 16 10 59t6 56q0 65 -95 65h-3v35h358v-35q-80 -8 -109.5 -38.5t-56.5 -127.5l-200 -761h-101l-252 761l-237 -761h-101l-225 755q-25 84 -48.5 128t-127.5 44z" />
<glyph unicode="x" horiz-adv-x="1138" d="M23 0v35q88 0 131 31.5t118 126.5l222 278l-199 287q-55 78 -108.5 113.5t-131.5 35.5v35h471v-35q-53 0 -75.5 -8t-22.5 -35q0 -31 41 -88l121 -180l153 192q37 47 37 74q0 45 -100 45v35h403v-35q-76 0 -117.5 -22.5t-93.5 -87.5l-223 -285l238 -344q51 -74 100 -103.5 t129 -29.5v-35h-473v35q45 0 72.5 10t27.5 37q0 16 -4 25.5t-20 33.5l-168 248l-166 -209q-25 -31 -37 -54.5t-12 -39.5q0 -29 20.5 -40t75.5 -11v-35h-409z" />
<glyph unicode="y" d="M-29 907v35h457v-35q-57 0 -83 -11t-26 -44q0 -45 37 -129l222 -510l172 449q16 43 37.5 100t21.5 78q0 67 -110 67h-3v35h387v-35q-74 0 -117.5 -42t-78.5 -132l-303 -782q-84 -219 -157 -301t-204 -82q-94 0 -152.5 28.5t-58.5 102.5q0 41 25.5 66.5t71.5 25.5 q68 0 92 -73.5t78 -73.5q39 0 78.5 54t74.5 144l66 158l-310 713q-51 119 -91 156.5t-126 37.5z" />
<glyph unicode="z" horiz-adv-x="911" d="M63 0v86l549 780h-260q-100 0 -138 -34.5t-64 -118.5h-52l15 229h688v-80l-547 -776h268q137 0 182.5 27.5t79.5 122.5h52l-15 -236h-758z" />
<glyph unicode="{" d="M248 389v49q94 31 159.5 97.5t65.5 162.5q0 37 -11 89.5t-21.5 103.5t-17.5 99t-7 97q0 141 136 245t296 104v-52q-106 -25 -162.5 -104.5t-56.5 -173.5q0 -43 5 -91t10 -93t9 -89.5t4 -62.5q0 -150 -90 -224.5t-227 -131.5q131 -57 224 -136t93 -221q0 -31 -2 -55.5 t-10 -90t-12 -108.5t-4 -82q0 -98 55 -175.5t164 -102.5v-51q-160 0 -296 102.5t-136 245.5q0 57 3 82.5t17.5 95.5t25.5 126t11 85q0 92 -64.5 160.5t-160.5 99.5z" />
<glyph unicode="|" horiz-adv-x="681" d="M293 -377v2083h100v-2083h-100z" />
<glyph unicode="}" d="M221 -557q106 25 162.5 104.5t56.5 173.5q0 43 -5 91.5t-10 93.5t-9 89t-4 62q0 143 91 220t226 137q-133 55 -225 132t-92 224q0 31 2 55.5t10 90t12 108.5t4 82q0 98 -55 176t-164 102v52q160 0 296 -102.5t136 -246.5q0 -57 -9 -111t-17.5 -95t-19.5 -97.5t-11 -85.5 q0 -98 63.5 -163.5t161.5 -96.5v-49q-92 -29 -158.5 -99.5t-66.5 -160.5q0 -37 11 -89t21.5 -103.5t17.5 -99.5t7 -97q0 -141 -136 -244.5t-296 -103.5v51z" />
<glyph unicode="~" horiz-adv-x="1177" d="M106 338v117q0 98 56.5 165.5t156.5 67.5q37 0 69 -12t116 -70l213 -151q88 -61 119 -62q55 0 77.5 41t22.5 103v86h123v-117q0 -92 -54.5 -163t-162.5 -71q-57 0 -93 20.5t-90 59.5l-219 156q-41 31 -65.5 45t-44.5 14q-53 0 -77 -40t-24 -93v-96h-123z" />
<glyph unicode="&#xa1;" horiz-adv-x="645" d="M119 985q0 55 37 92t92 37t92 -37t37 -92q0 -53 -36 -91t-93 -38q-55 0 -92 37t-37 92zM137 -168l4 66l62 829h90l61 -829l4 -66q0 -55 -30.5 -84t-79.5 -29q-47 0 -79 30t-32 83z" />
<glyph unicode="&#xa2;" horiz-adv-x="948" d="M104 520q0 213 99.5 328t245.5 115v157h79v-157q104 0 215 -53.5t111 -166.5q0 -45 -26.5 -72.5t-67.5 -27.5q-43 0 -70.5 22.5t-39 96.5t-35 100.5t-87.5 36.5v-797q29 -16 77 -29.5t116 -13.5q35 0 57.5 2t52.5 15v-62q-55 -16 -111 -25t-122 -9l-70 6v-176h-79v186 q-156 41 -250.5 155.5t-94.5 368.5zM264 569q0 -156 53.5 -257t131.5 -167v754q-86 -23 -135.5 -100.5t-49.5 -229.5z" />
<glyph unicode="&#xa3;" d="M104 0v35q94 0 136.5 32.5t42.5 131.5v417h-179v80h179v281q0 172 62.5 262t283.5 90q129 0 246.5 -52t117.5 -149q0 -47 -27.5 -74.5t-66.5 -27.5q-59 0 -82.5 33t-23.5 84q0 53 -59.5 79.5t-110.5 26.5q-113 0 -147 -64.5t-34 -207.5v-281h263v-80h-263v-378 q0 -98 22.5 -125t117.5 -27h161q115 0 154 48t49 149h60l-17 -283h-885z" />
<glyph unicode="&#xa4;" horiz-adv-x="1024" d="M29 1051l65 63l139 -139q59 43 135 68.5t146 25.5q76 0 146.5 -23.5t134.5 -70.5l139 139l65 -63l-141 -142q49 -53 72.5 -128.5t23.5 -153.5t-23.5 -152t-70.5 -127l137 -137l-61 -64l-135 136q-133 -96 -287 -97q-78 0 -152.5 26t-134.5 71l-135 -136l-61 64l137 137 q-45 49 -70.5 126t-25.5 153q0 158 98 282zM156 627q0 -147 104 -252t254 -105q147 0 251.5 104.5t104.5 252.5q0 145 -104 251.5t-252 106.5q-147 0 -252.5 -105.5t-105.5 -252.5z" />
<glyph unicode="&#xa5;" horiz-adv-x="1290" d="M-20 1323v41h563v-41q-135 0 -135 -70q0 -16 9 -38.5t27 -53.5l230 -397l241 397q20 31 31.5 54.5t11.5 37.5q0 70 -129 70v41h484v-41q-86 0 -144.5 -33t-111.5 -121l-324 -524h232v-80h-232v-100h232v-80h-232v-176q0 -106 44 -137t147 -31v-41h-564v41 q104 0 147.5 29.5t43.5 138.5v176h-232v80h232v100h-232v80h232l-320 524q-53 88 -107 121t-144 33z" />
<glyph unicode="&#xa6;" horiz-adv-x="530" d="M201 -281v715h135v-715h-135zM201 791v712h135v-712h-135z" />
<glyph unicode="&#xa7;" horiz-adv-x="1026" d="M115 707q0 82 42 138t103 109q-39 33 -64.5 72t-25.5 104q0 125 109.5 189.5t236.5 64.5q125 0 233.5 -37.5t108.5 -121.5q0 -41 -29.5 -69t-76.5 -28q-78 0 -107 91.5t-127 91.5q-86 0 -137 -35t-51 -105q0 -86 51 -115.5t205.5 -92t232.5 -112.5t78 -163 q0 -80 -48 -138t-104 -95q55 -55 82 -93t27 -110q0 -127 -102.5 -199.5t-270.5 -72.5q-188 0 -263 42.5t-75 116.5q0 37 28 67t71 30q76 0 104.5 -91.5t140.5 -91.5q82 0 144.5 36t62.5 126q0 96 -73.5 134t-223 94.5t-216 104.5t-66.5 159zM236 770q0 -66 49 -103.5 t139 -74.5l260 -107q29 20 60.5 62.5t31.5 85.5q0 66 -59.5 105.5t-151.5 76.5l-246 98q-33 -29 -58 -63.5t-25 -79.5z" />
<glyph unicode="&#xa8;" horiz-adv-x="614" d="M23 1208q0 45 29.5 75t72.5 30q45 0 74.5 -30t29.5 -75q0 -41 -30.5 -71.5t-73.5 -30.5t-72.5 29.5t-29.5 72.5zM383 1208q0 45 29.5 75t72.5 30q45 0 75 -30t30 -75q0 -43 -30 -72.5t-75 -29.5q-43 0 -72.5 29.5t-29.5 72.5z" />
<glyph unicode="&#xa9;" horiz-adv-x="1024" d="M35 926q0 193 141 325.5t338 132.5q195 0 336 -133t141 -325q0 -193 -140 -327t-337 -134q-199 0 -339 133t-140 328zM106 926q0 -162 120 -275.5t288 -113.5q166 0 286 113.5t120 275.5q0 160 -120 273.5t-286 113.5q-168 0 -288 -113t-120 -274zM264 922 q0 123 78 207.5t174 84.5q43 0 76 -10t70 -20q6 0 16 11t16 17h31v-206l-31 -7q-31 84 -61.5 129.5t-91.5 45.5q-70 0 -107 -63.5t-37 -186.5q0 -104 38 -167t112 -63q76 0 104.5 45t40.5 105h41q-8 -82 -47 -139.5t-160 -57.5q-115 0 -188.5 76t-73.5 199z" />
<glyph unicode="&#xaa;" horiz-adv-x="569" d="M61 674q0 102 94.5 141t217.5 39v41q0 88 -15.5 127t-81.5 39q-45 0 -62 -16.5t-17 -43.5q0 -43 -16.5 -57t-43.5 -14q-61 0 -61 57q0 53 63.5 86t134.5 33q193 0 193 -164v-317q0 -49 41 -50l37 7l6 -29q-14 -6 -38 -11t-46 -5q-49 0 -70.5 21.5t-21.5 55.5 q-33 -39 -71 -58t-97 -19q-63 0 -104.5 38.5t-41.5 98.5zM168 696q0 -41 20.5 -67.5t57.5 -26.5q66 0 96.5 44t30.5 102v61q-76 0 -140.5 -26.5t-64.5 -86.5z" />
<glyph unicode="&#xab;" horiz-adv-x="759" d="M84 487l215 369h104l-122 -369l122 -370h-104zM356 487l215 369h105l-123 -369l123 -370h-105z" />
<glyph unicode="&#xac;" horiz-adv-x="1177" d="M117 420v121h942v-418h-133v297h-809z" />
<glyph unicode="&#xad;" horiz-adv-x="835" d="M111 432v129h614v-129h-614z" />
<glyph unicode="&#xae;" horiz-adv-x="1024" d="M33 926q0 193 141 325.5t338 132.5t338 -133t141 -325q0 -195 -140 -328t-339 -133q-195 0 -337 134t-142 327zM104 926q0 -162 120 -275.5t288 -113.5t288 112.5t120 276.5q0 160 -120 273.5t-288 113.5t-288 -113t-120 -274zM274 672v39q47 4 61.5 17t14.5 65v292 q0 47 -11 56.5t-65 17.5v39h250q113 0 168.5 -26.5t55.5 -106.5q0 -63 -40 -89t-110 -42q72 -43 94.5 -116t44.5 -73q18 0 25.5 25t7.5 43h41q0 -70 -30.5 -106.5t-78.5 -36.5q-90 0 -116.5 126t-100.5 126h-22v-125q0 -57 10 -67.5t68 -18.5v-39h-267zM463 965h43 q53 0 85 19.5t32 72.5q0 51 -18.5 76.5t-69.5 25.5q-49 0 -60.5 -16.5t-11.5 -61.5v-116z" />
<glyph unicode="&#xb0;" horiz-adv-x="684" d="M117 1051q0 94 63.5 159.5t161.5 65.5q94 0 159.5 -65.5t65.5 -159.5t-65.5 -160t-159.5 -66q-96 0 -160.5 65t-64.5 161zM205 1051q0 -59 39 -98.5t98 -39.5t98 39t39 99q0 59 -39 98t-98 39t-98 -39t-39 -98z" />
<glyph unicode="&#xb1;" horiz-adv-x="1177" d="M117 -86h944v-121h-944v121zM117 420v121h405v387h133v-387h406v-121h-406v-420h-133v420h-405z" />
<glyph unicode="&#xb2;" horiz-adv-x="720" d="M86 408v63q135 119 260 278.5t125 303.5q0 68 -38 111.5t-103 43.5q-78 0 -118 -43t-54 -102h-64q18 113 87 163t165 50q129 0 195.5 -66.5t66.5 -181.5q0 -147 -85 -238.5t-324 -306.5h237q78 0 108.5 28t43.5 105h45l-15 -208h-532z" />
<glyph unicode="&#xb3;" horiz-adv-x="720" d="M66 416v67q51 -12 81.5 -17t69.5 -5q106 0 181 52t75 153q0 94 -48 125.5t-132 31.5v68q74 0 120 29.5t46 130.5q0 76 -40 116.5t-104 40.5q-74 0 -111.5 -35.5t-56.5 -93.5h-59q16 80 70.5 138.5t177.5 58.5q119 0 189.5 -58.5t70.5 -166.5q0 -74 -35 -120t-98 -71 q70 -20 108.5 -71.5t38.5 -141.5q0 -129 -100 -191.5t-248 -62.5q-61 0 -122.5 10.5t-73.5 12.5z" />
<glyph unicode="&#xb4;" horiz-adv-x="614" d="M262 1106l70 233q14 51 33.5 67.5t72.5 16.5q27 0 49.5 -18.5t22.5 -44.5q0 -29 -12 -49q-18 -23 -29 -37l-119 -168h-88z" />
<glyph unicode="&#xb5;" horiz-adv-x="1101" d="M33 879v34l315 50v-627q0 -125 45 -186.5t129 -61.5q102 0 166 109.5t64 283.5v264q0 80 -45 107t-111 27v34l315 50v-766q0 -82 44 -108t112 -26v-34l-315 -49v208q-18 -78 -79 -143t-171 -65q-90 0 -154 51v-416l-160 -23v1153q0 82 -44 108t-111 26z" />
<glyph unicode="&#xb6;" d="M135 872q0 246 183.5 369t429.5 123h235v-76h-119v-1775h-76v1775h-124v-1775h-76v895q-170 20 -311.5 130.5t-141.5 333.5z" />
<glyph unicode="&#xb8;" horiz-adv-x="614" d="M197 -356q23 -10 48 -15.5t64 -5.5q47 0 78 31t31 82q0 43 -21.5 68.5t-54.5 25.5q-18 0 -33.5 -8t-19.5 -27h-72l70 246h69l-43 -156q18 8 36 12.5t40 4.5q72 0 117 -43t45 -121q0 -94 -59.5 -142.5t-155.5 -48.5q-43 0 -62.5 5.5t-76.5 27.5v64z" />
<glyph unicode="&#xb9;" horiz-adv-x="720" d="M197 1126v31l209 119h55v-670q0 -113 19.5 -138.5t90.5 -25.5v-34h-364v34q92 0 111.5 23.5t19.5 140.5v438q0 100 -57 101q-37 0 -84 -19z" />
<glyph unicode="&#xba;" horiz-adv-x="608" d="M55 821q0 131 66.5 208t181.5 77t181.5 -77t66.5 -208t-66.5 -207.5t-181.5 -76.5q-117 0 -182.5 75.5t-65.5 208.5zM166 821q0 -102 29.5 -170.5t107.5 -68.5t107.5 69.5t29.5 169.5q0 102 -29.5 171t-107.5 69q-76 0 -106.5 -70.5t-30.5 -169.5z" />
<glyph unicode="&#xbb;" horiz-adv-x="759" d="M84 117l123 370l-123 369h104l215 -369l-215 -370h-104zM356 117l123 370l-123 369h105l215 -369l-215 -370h-105z" />
<glyph unicode="&#xbc;" horiz-adv-x="1671" d="M111 1126v31l208 119h56v-670q0 -113 19.5 -138.5t90.5 -25.5v-34h-364v34q92 0 111.5 23.5t19.5 140.5v438q0 100 -57 101q-37 0 -84 -19zM487 0l426 1255h99l-426 -1255h-99zM918 246v67l372 543h117v-539h152v-71h-152v-99q0 -72 20.5 -92t92.5 -20v-35h-342v35 q70 0 90 20.5t20 91.5v99h-370zM1022 317h266v392z" />
<glyph unicode="&#xbd;" horiz-adv-x="1671" d="M143 1126v31l209 119h56v-670q0 -113 19 -138.5t91 -25.5v-34h-364v34q92 0 111.5 23.5t19.5 140.5v438q0 100 -58 101q-37 0 -84 -19zM520 0l426 1255h98l-426 -1255h-98zM981 0v63q133 115 260 278t127 304q0 68 -38 112t-103 44q-78 0 -119 -44t-55 -102h-64 q18 115 88 164t166 49q129 0 195.5 -66.5t66.5 -180.5q0 -174 -227 -388q-139 -119 -182 -157h235q76 0 109 28.5t43 104.5h45l-12 -209h-535z" />
<glyph unicode="&#xbe;" horiz-adv-x="1671" d="M66 416v67q51 -12 81.5 -17t69.5 -5q109 0 183.5 52t74.5 153q0 94 -48 125.5t-134 31.5v68q74 0 120 29.5t46 130.5q0 76 -40 116.5t-104 40.5q-74 0 -111.5 -35.5t-56.5 -93.5h-59q16 80 70.5 138.5t177.5 58.5q119 0 189.5 -58.5t70.5 -166.5q0 -74 -35 -120t-98 -71 q72 -20 110.5 -71.5t38.5 -141.5q0 -129 -101 -191.5t-249 -62.5q-61 0 -122.5 10.5t-73.5 12.5zM598 0l426 1255h98l-426 -1255h-98zM1004 246v67l372 543h117v-539h152v-71h-152v-99q0 -72 20.5 -92t92.5 -20v-35h-342v35q70 0 90 20.5t20 91.5v99h-370zM1108 317h266v392 z" />
<glyph unicode="&#xbf;" horiz-adv-x="948" d="M104 12q0 145 130.5 270.5t218.5 209.5q76 86 75 165v70h93v-131q0 -82 -14.5 -122t-53.5 -93q-106 -109 -189 -198t-83 -191q0 -96 63.5 -144.5t142.5 -48.5q102 0 152.5 87t110.5 87q43 0 68.5 -25.5t25.5 -60.5q0 -90 -117 -129t-233 -39q-168 0 -279 70t-111 223z M436 985q0 55 37 92t92 37t93 -38t38 -91q0 -55 -36.5 -92t-94.5 -37q-55 0 -92 37t-37 92z" />
<glyph unicode="&#xc0;" horiz-adv-x="1404" d="M-20 0v41q111 0 152.5 45t92.5 182l424 1116h115l426 -1132q41 -106 91 -158.5t144 -52.5v-41h-532v41q61 0 103 15.5t42 52.5q0 14 -6 40.5t-12 45.5l-96 258h-514l-88 -244q-12 -35 -18.5 -57.5t-6.5 -38.5q0 -41 39 -56.5t106 -15.5v-41h-462zM438 532h457l-227 625z M497 1782q0 23 22.5 43t49.5 20q53 0 72.5 -16t34.5 -68l69 -233h-88l-121 168q-23 33 -31 49t-8 37z" />
<glyph unicode="&#xc1;" horiz-adv-x="1404" d="M-20 0v41q111 0 152.5 45t92.5 182l424 1116h115l426 -1132q41 -106 91 -158.5t144 -52.5v-41h-532v41q61 0 103 15.5t42 52.5q0 14 -6 40.5t-12 45.5l-96 258h-514l-88 -244q-12 -35 -18.5 -57.5t-6.5 -38.5q0 -41 39 -56.5t106 -15.5v-41h-462zM438 532h457l-227 625z M657 1528l70 233q14 51 33.5 67.5t72.5 16.5q27 0 49.5 -18.5t22.5 -44.5q0 -29 -12 -49q-18 -23 -29 -37l-119 -168h-88z" />
<glyph unicode="&#xc2;" horiz-adv-x="1404" d="M-20 0v41q111 0 152.5 45t92.5 182l424 1116h115l426 -1132q41 -106 91 -158.5t144 -52.5v-41h-532v41q61 0 103 15.5t42 52.5q0 14 -6 40.5t-12 45.5l-96 258h-514l-88 -244q-12 -35 -18.5 -57.5t-6.5 -38.5q0 -41 39 -56.5t106 -15.5v-41h-462zM438 532h457l-227 625z M442 1528l174 252q29 37 44.5 51t41.5 14q29 0 43.5 -12t42.5 -53l174 -252h-88l-172 141l-172 -141h-88z" />
<glyph unicode="&#xc3;" horiz-adv-x="1404" d="M-20 0v41q111 0 152.5 45t92.5 182l424 1116h115l426 -1132q41 -106 91 -158.5t144 -52.5v-41h-532v41q61 0 103 15.5t42 52.5q0 14 -6 40.5t-12 45.5l-96 258h-514l-88 -244q-12 -35 -18.5 -57.5t-6.5 -38.5q0 -41 39 -56.5t106 -15.5v-41h-462zM438 532h457l-227 625z M438 1528q14 109 38.5 171t96.5 62q23 0 41.5 -7t46.5 -23l90 -54q51 -27 78 -26q29 0 41 22.5t21 65.5h73q-12 -100 -35.5 -168t-99.5 -68q-25 0 -46 8.5t-58 28.5l-107 58q-39 16 -53 16q-23 0 -36 -24.5t-17 -61.5h-74z" />
<glyph unicode="&#xc4;" horiz-adv-x="1404" d="M-20 0v41q111 0 152.5 45t92.5 182l424 1116h115l426 -1132q41 -106 91 -158.5t144 -52.5v-41h-532v41q61 0 103 15.5t42 52.5q0 14 -6 40.5t-12 45.5l-96 258h-514l-88 -244q-12 -35 -18.5 -57.5t-6.5 -38.5q0 -41 39 -56.5t106 -15.5v-41h-462zM418 1630q0 45 29.5 75 t72.5 30q45 0 74.5 -30t29.5 -75q0 -41 -30.5 -71.5t-73.5 -30.5t-72.5 29.5t-29.5 72.5zM438 532h457l-227 625zM778 1630q0 45 29.5 75t72.5 30q45 0 75 -30t30 -75q0 -43 -30 -72.5t-75 -29.5q-43 0 -72.5 29.5t-29.5 72.5z" />
<glyph unicode="&#xc5;" horiz-adv-x="1404" d="M-20 0v41q111 0 152.5 45t92.5 182l424 1116h115l426 -1132q41 -106 91 -158.5t144 -52.5v-41h-532v41q61 0 103 15.5t42 52.5q0 14 -6 40.5t-12 45.5l-96 258h-514l-88 -244q-12 -35 -18.5 -57.5t-6.5 -38.5q0 -41 39 -56.5t106 -15.5v-41h-462zM438 532h457l-227 625z M526 1669q0 74 51 125t125 51q72 0 123 -51t51 -125t-50 -124t-124 -50t-125 49t-51 125zM612 1669q0 -37 25.5 -62.5t64.5 -25.5q37 0 62.5 25.5t25.5 62.5t-24.5 63.5t-63.5 26.5t-64.5 -25.5t-25.5 -64.5z" />
<glyph unicode="&#xc6;" horiz-adv-x="1783" d="M-20 0v41q111 0 156.5 53t101.5 150l524 913q18 29 33.5 62.5t15.5 50.5q0 29 -35 41t-112 12v41h983l14 -250h-51q-27 94 -78 132t-162 38h-180q-51 0 -71.5 -13.5t-20.5 -51.5l4 -78l31 -445h210q109 0 148 33t39 139h43v-424h-43q0 88 -43 130t-144 42h-204l30 -423 q0 -72 20.5 -92.5t84.5 -20.5h115q119 0 172 40t77 150h52l-13 -270h-880v41q90 0 141 26.5t51 108.5l-4 64l-24 376h-390l-198 -346q-25 -43 -46.5 -86t-21.5 -63q0 -45 39 -62.5t100 -17.5v-41h-464zM616 696h340l-32 531z" />
<glyph unicode="&#xc7;" horiz-adv-x="1177" d="M117 727q0 313 125 485t436 172q115 0 205 -15t188 -42l19 -321h-52q-37 156 -134 227.5t-228 71.5q-217 0 -287 -166t-70 -396q0 -272 103.5 -471.5t402.5 -199.5q96 0 143.5 11t121.5 40v-88q-74 -27 -166.5 -41t-200.5 -14q-299 0 -452.5 202.5t-153.5 544.5z M480 -356q23 -10 48 -15.5t64 -5.5q47 0 78 31t31 82q0 43 -21.5 68.5t-54.5 25.5q-18 0 -33.5 -8t-19.5 -27h-72l70 246h69l-43 -156q18 8 36 12.5t40 4.5q72 0 117 -43t45 -121q0 -94 -59.5 -142.5t-155.5 -48.5q-43 0 -62.5 5.5t-76.5 27.5v64z" />
<glyph unicode="&#xc8;" horiz-adv-x="1101" d="M33 0v41q98 0 138 29.5t40 138.5v946q0 106 -41 137t-137 31v41h928l14 -250h-51q-18 92 -72.5 131t-165.5 39h-180q-78 0 -95.5 -27.5t-17.5 -144.5v-358h264q104 0 145.5 34.5t41.5 137.5h43v-424h-43q0 88 -43 130t-144 42h-264v-422q0 -121 17.5 -146.5t95.5 -25.5 h196q119 0 173.5 41t78.5 149h52l-15 -270h-958zM346 1782q0 23 22.5 43t49.5 20q53 0 72.5 -16t34.5 -68l69 -233h-88l-121 168q-23 33 -31 49t-8 37z" />
<glyph unicode="&#xc9;" horiz-adv-x="1101" d="M33 0v41q98 0 138 29.5t40 138.5v946q0 106 -41 137t-137 31v41h928l14 -250h-51q-18 92 -72.5 131t-165.5 39h-180q-78 0 -95.5 -27.5t-17.5 -144.5v-358h264q104 0 145.5 34.5t41.5 137.5h43v-424h-43q0 88 -43 130t-144 42h-264v-422q0 -121 17.5 -146.5t95.5 -25.5 h196q119 0 173.5 41t78.5 149h52l-15 -270h-958zM506 1528l70 233q14 51 33.5 67.5t72.5 16.5q27 0 49.5 -18.5t22.5 -44.5q0 -29 -12 -49q-18 -23 -29 -37l-119 -168h-88z" />
<glyph unicode="&#xca;" horiz-adv-x="1101" d="M33 0v41q98 0 138 29.5t40 138.5v946q0 106 -41 137t-137 31v41h928l14 -250h-51q-18 92 -72.5 131t-165.5 39h-180q-78 0 -95.5 -27.5t-17.5 -144.5v-358h264q104 0 145.5 34.5t41.5 137.5h43v-424h-43q0 88 -43 130t-144 42h-264v-422q0 -121 17.5 -146.5t95.5 -25.5 h196q119 0 173.5 41t78.5 149h52l-15 -270h-958zM291 1528l174 252q29 37 44.5 51t41.5 14q29 0 43.5 -12t42.5 -53l174 -252h-88l-172 141l-172 -141h-88z" />
<glyph unicode="&#xcb;" horiz-adv-x="1101" d="M33 0v41q98 0 138 29.5t40 138.5v946q0 106 -41 137t-137 31v41h928l14 -250h-51q-18 92 -72.5 131t-165.5 39h-180q-78 0 -95.5 -27.5t-17.5 -144.5v-358h264q104 0 145.5 34.5t41.5 137.5h43v-424h-43q0 88 -43 130t-144 42h-264v-422q0 -121 17.5 -146.5t95.5 -25.5 h196q119 0 173.5 41t78.5 149h52l-15 -270h-958zM267 1630q0 45 29.5 75t72.5 30q45 0 74.5 -30t29.5 -75q0 -41 -30.5 -71.5t-73.5 -30.5t-72.5 29.5t-29.5 72.5zM627 1630q0 45 29.5 75t72.5 30q45 0 75 -30t30 -75q0 -43 -30 -72.5t-75 -29.5q-43 0 -72.5 29.5 t-29.5 72.5z" />
<glyph unicode="&#xcc;" horiz-adv-x="608" d="M35 0v41q98 0 138 29.5t40 138.5v946q0 106 -41 137t-137 31v41h538v-41q-98 0 -138 -29.5t-40 -138.5v-946q0 -106 41 -137t137 -31v-41h-538zM100 1782q0 23 22.5 43t49.5 20q53 0 72.5 -16t34.5 -68l69 -233h-88l-121 168q-23 33 -31 49t-8 37z" />
<glyph unicode="&#xcd;" horiz-adv-x="608" d="M35 0v41q98 0 138 29.5t40 138.5v946q0 106 -41 137t-137 31v41h538v-41q-98 0 -138 -29.5t-40 -138.5v-946q0 -106 41 -137t137 -31v-41h-538zM260 1528l70 233q14 51 33.5 67.5t72.5 16.5q27 0 49.5 -18.5t22.5 -44.5q0 -29 -12 -49q-18 -23 -29 -37l-119 -168h-88z " />
<glyph unicode="&#xce;" horiz-adv-x="608" d="M35 0v41q98 0 138 29.5t40 138.5v946q0 106 -41 137t-137 31v41h538v-41q-98 0 -138 -29.5t-40 -138.5v-946q0 -106 41 -137t137 -31v-41h-538zM45 1528l174 252q29 37 44.5 51t41.5 14q29 0 43.5 -12t42.5 -53l174 -252h-88l-172 141l-172 -141h-88z" />
<glyph unicode="&#xcf;" horiz-adv-x="608" d="M21 1630q0 45 29.5 75t72.5 30q45 0 74.5 -30t29.5 -75q0 -41 -30.5 -71.5t-73.5 -30.5t-72.5 29.5t-29.5 72.5zM35 0v41q98 0 138 29.5t40 138.5v946q0 106 -41 137t-137 31v41h538v-41q-98 0 -138 -29.5t-40 -138.5v-946q0 -106 41 -137t137 -31v-41h-538zM381 1630 q0 45 29.5 75t72.5 30q45 0 75 -30t30 -75q0 -43 -30 -72.5t-75 -29.5q-43 0 -72.5 29.5t-29.5 72.5z" />
<glyph unicode="&#xd0;" horiz-adv-x="1329" d="M33 0v41q98 0 138 29.5t40 138.5v455h-178v79h178v412q0 106 -41 137t-137 31v41h479q205 0 354.5 -48t247.5 -198.5t98 -437.5q0 -285 -100 -434.5t-250.5 -197.5t-349.5 -48h-479zM393 252q0 -111 20.5 -141.5t98.5 -30.5q262 0 380 144.5t118 455.5q0 301 -111 452.5 t-387 151.5q-80 0 -99.5 -25.5t-19.5 -146.5v-369h316v-79h-316v-412z" />
<glyph unicode="&#xd1;" horiz-adv-x="1366" d="M41 0v41q98 0 138 29.5t40 138.5v946q0 106 -41 137t-137 31v41h373l630 -1100l5 891q0 106 -41 137t-138 31v41h473v-41q-98 0 -138 -29.5t-40 -138.5v-1155h-151l-674 1176l-4 -967q0 -106 41 -137t137 -31v-41h-473zM420 1528q14 109 38.5 171t96.5 62q23 0 41.5 -7 t46.5 -23l90 -54q51 -27 78 -26q29 0 41 22.5t21 65.5h73q-12 -100 -35.5 -168t-99.5 -68q-25 0 -46 8.5t-58 28.5l-107 58q-39 16 -53 16q-23 0 -36 -24.5t-17 -61.5h-74z" />
<glyph unicode="&#xd2;" horiz-adv-x="1290" d="M117 682q0 330 119.5 516t408.5 186q287 0 408 -187t121 -515t-121 -515t-408 -187t-407.5 187t-120.5 515zM319 682q0 -373 85 -498t241 -125q199 0 262.5 165t63.5 458q0 373 -85 498t-241 125q-199 0 -262.5 -165t-63.5 -458zM440 1782q0 23 22.5 43t49.5 20 q53 0 72.5 -16t34.5 -68l69 -233h-88l-121 168q-23 33 -31 49t-8 37z" />
<glyph unicode="&#xd3;" horiz-adv-x="1290" d="M117 682q0 330 119.5 516t408.5 186q287 0 408 -187t121 -515t-121 -515t-408 -187t-407.5 187t-120.5 515zM319 682q0 -373 85 -498t241 -125q199 0 262.5 165t63.5 458q0 373 -85 498t-241 125q-199 0 -262.5 -165t-63.5 -458zM600 1528l70 233q14 51 33.5 67.5 t72.5 16.5q27 0 49.5 -18.5t22.5 -44.5q0 -29 -12 -49q-18 -23 -29 -37l-119 -168h-88z" />
<glyph unicode="&#xd4;" horiz-adv-x="1290" d="M117 682q0 330 119.5 516t408.5 186q287 0 408 -187t121 -515t-121 -515t-408 -187t-407.5 187t-120.5 515zM319 682q0 -373 85 -498t241 -125q199 0 262.5 165t63.5 458q0 373 -85 498t-241 125q-199 0 -262.5 -165t-63.5 -458zM385 1528l174 252q29 37 44.5 51t41.5 14 q29 0 43.5 -12t42.5 -53l174 -252h-88l-172 141l-172 -141h-88z" />
<glyph unicode="&#xd5;" horiz-adv-x="1290" d="M117 682q0 330 119.5 516t408.5 186q287 0 408 -187t121 -515t-121 -515t-408 -187t-407.5 187t-120.5 515zM319 682q0 -373 85 -498t241 -125q199 0 262.5 165t63.5 458q0 373 -85 498t-241 125q-199 0 -262.5 -165t-63.5 -458zM381 1528q14 109 38.5 171t96.5 62 q23 0 41.5 -7t46.5 -23l90 -54q51 -27 78 -26q29 0 41 22.5t21 65.5h73q-12 -100 -35.5 -168t-99.5 -68q-25 0 -46 8.5t-58 28.5l-107 58q-39 16 -53 16q-23 0 -36 -24.5t-17 -61.5h-74z" />
<glyph unicode="&#xd6;" horiz-adv-x="1290" d="M117 682q0 330 119.5 516t408.5 186q287 0 408 -187t121 -515t-121 -515t-408 -187t-407.5 187t-120.5 515zM319 682q0 -373 85 -498t241 -125q199 0 262.5 165t63.5 458q0 373 -85 498t-241 125q-199 0 -262.5 -165t-63.5 -458zM361 1630q0 45 29.5 75t72.5 30 q45 0 74.5 -30t29.5 -75q0 -41 -30.5 -71.5t-73.5 -30.5t-72.5 29.5t-29.5 72.5zM721 1630q0 45 29.5 75t72.5 30q45 0 75 -30t30 -75q0 -43 -30 -72.5t-75 -29.5q-43 0 -72.5 29.5t-29.5 72.5z" />
<glyph unicode="&#xd7;" horiz-adv-x="1177" d="M113 74l381 387l-381 377l96 104l383 -377l369 377l86 -80l-371 -379l387 -387l-102 -96l-386 379l-370 -379z" />
<glyph unicode="&#xd8;" horiz-adv-x="1290" d="M117 682q0 330 119.5 516t408.5 186q186 0 301 -77l88 143l70 -37l-96 -158q88 -90 127 -235.5t39 -337.5q0 -330 -120 -516t-409 -186q-223 0 -346 116l-98 -159l-68 43l111 176q-68 94 -97.5 226t-29.5 300zM319 682q0 -125 5.5 -200.5t23.5 -153.5l531 866 q-39 53 -95.5 82t-138.5 29q-199 0 -262.5 -165t-63.5 -458zM379 229q37 -80 101.5 -125t164.5 -45q199 0 262.5 165t63.5 458q0 186 -12.5 273t-38.5 157z" />
<glyph unicode="&#xd9;" horiz-adv-x="1329" d="M8 1323v41h539v-41q-98 0 -138 -29.5t-40 -138.5v-682q0 -186 66.5 -300t248.5 -114q205 0 273.5 103.5t68.5 310.5v682q0 106 -41 137t-137 31v41h473v-41q-98 0 -138 -29.5t-40 -138.5v-682q0 -250 -88 -371.5t-379 -121.5q-295 0 -392.5 122.5t-97.5 370.5v682 q0 106 -41 137t-137 31zM460 1782q0 23 22.5 43t49.5 20q53 0 72.5 -16t34.5 -68l69 -233h-88l-121 168q-23 33 -31 49t-8 37z" />
<glyph unicode="&#xda;" horiz-adv-x="1329" d="M8 1323v41h539v-41q-98 0 -138 -29.5t-40 -138.5v-682q0 -186 66.5 -300t248.5 -114q205 0 273.5 103.5t68.5 310.5v682q0 106 -41 137t-137 31v41h473v-41q-98 0 -138 -29.5t-40 -138.5v-682q0 -250 -88 -371.5t-379 -121.5q-295 0 -392.5 122.5t-97.5 370.5v682 q0 106 -41 137t-137 31zM620 1528l70 233q14 51 33.5 67.5t72.5 16.5q27 0 49.5 -18.5t22.5 -44.5q0 -29 -12 -49q-18 -23 -29 -37l-119 -168h-88z" />
<glyph unicode="&#xdb;" horiz-adv-x="1329" d="M8 1323v41h539v-41q-98 0 -138 -29.5t-40 -138.5v-682q0 -186 66.5 -300t248.5 -114q205 0 273.5 103.5t68.5 310.5v682q0 106 -41 137t-137 31v41h473v-41q-98 0 -138 -29.5t-40 -138.5v-682q0 -250 -88 -371.5t-379 -121.5q-295 0 -392.5 122.5t-97.5 370.5v682 q0 106 -41 137t-137 31zM426 1528l174 252q29 37 44.5 51t41.5 14q29 0 43.5 -12t42.5 -53l174 -252h-88l-172 141l-172 -141h-88z" />
<glyph unicode="&#xdc;" horiz-adv-x="1329" d="M8 1323v41h539v-41q-98 0 -138 -29.5t-40 -138.5v-682q0 -186 66.5 -300t248.5 -114q205 0 273.5 103.5t68.5 310.5v682q0 106 -41 137t-137 31v41h473v-41q-98 0 -138 -29.5t-40 -138.5v-682q0 -250 -88 -371.5t-379 -121.5q-295 0 -392.5 122.5t-97.5 370.5v682 q0 106 -41 137t-137 31zM402 1630q0 45 29.5 75t72.5 30q45 0 74.5 -30t29.5 -75q0 -41 -30.5 -71.5t-73.5 -30.5t-72.5 29.5t-29.5 72.5zM762 1630q0 45 29.5 75t72.5 30q45 0 75 -30t30 -75q0 -43 -30 -72.5t-75 -29.5q-43 0 -72.5 29.5t-29.5 72.5z" />
<glyph unicode="&#xdd;" horiz-adv-x="1290" d="M-20 1323v41h563v-41q-76 0 -104.5 -15.5t-28.5 -60.5q0 -27 34 -86l230 -397l241 397q20 31 31.5 54.5t11.5 37.5q0 70 -129 70v41h482v-41q-86 0 -143.5 -33t-110.5 -121l-324 -530v-430q0 -106 41 -137t137 -31v-41h-538v41q98 0 138 29.5t40 138.5v430l-320 530 q-53 88 -107 121t-144 33zM600 1528l70 233q14 51 33.5 67.5t72.5 16.5q27 0 49.5 -18.5t22.5 -44.5q0 -29 -12 -49q-18 -23 -29 -37l-119 -168h-88z" />
<glyph unicode="&#xde;" horiz-adv-x="1253" d="M27 0v41q98 0 138 29.5t40 138.5v946q0 106 -41 137t-137 31v41h538v-41q-98 0 -138 -29.5t-40 -138.5v-72h363q188 0 296.5 -86t108.5 -305q0 -178 -118.5 -266t-286.5 -88h-363v-129q0 -106 41 -137t137 -31v-41h-538zM387 418h268q158 0 233 53t75 219q0 186 -75 250 t-233 64h-268v-586z" />
<glyph unicode="&#xdf;" d="M27 0v35q78 0 117.5 29.5t39.5 121.5v777q0 238 94.5 329.5t260.5 91.5q158 0 258 -85t100 -257q0 -104 -50 -183t-171 -114q147 -27 222 -103.5t75 -244.5q0 -199 -89 -308t-302 -109q-61 0 -140 20v84q29 -16 55.5 -26.5t69.5 -10.5q139 0 181.5 100.5t42.5 249.5 q0 145 -55.5 226.5t-178.5 81.5h-41v67q90 0 144.5 58.5t54.5 211.5q0 133 -52.5 204t-134.5 71q-106 0 -145 -97.5t-39 -256.5v-963h-317z" />
<glyph unicode="&#xe0;" horiz-adv-x="987" d="M109 211q0 190 144 239.5t396 71.5v78q0 143 -29.5 219t-144.5 76q-86 0 -114.5 -30.5t-28.5 -88.5q0 -55 -32 -80.5t-64 -25.5q-43 0 -71 25.5t-28 66.5q0 90 109.5 145.5t230.5 55.5q197 0 264.5 -82t67.5 -244v-508q0 -53 19.5 -74.5t68.5 -21.5q12 0 29.5 3t25.5 5 v-43q-18 -4 -64 -11t-85 -7q-84 0 -119 38.5t-35 110.5q-53 -74 -123.5 -111.5t-171.5 -37.5q-106 0 -175.5 65.5t-69.5 165.5zM288 1360q0 23 22.5 43t49.5 20q53 0 72.5 -16t34.5 -68l69 -233h-88l-121 168q-23 33 -31 49t-8 37zM291 244q0 -78 42 -128t97 -50 q96 0 157.5 79.5t61.5 188.5v121q-127 0 -242.5 -43t-115.5 -168z" />
<glyph unicode="&#xe1;" horiz-adv-x="987" d="M109 211q0 190 144 239.5t396 71.5v78q0 143 -29.5 219t-144.5 76q-86 0 -114.5 -30.5t-28.5 -88.5q0 -55 -32 -80.5t-64 -25.5q-43 0 -71 25.5t-28 66.5q0 90 109.5 145.5t230.5 55.5q197 0 264.5 -82t67.5 -244v-508q0 -53 19.5 -74.5t68.5 -21.5q12 0 29.5 3t25.5 5 v-43q-18 -4 -64 -11t-85 -7q-84 0 -119 38.5t-35 110.5q-53 -74 -123.5 -111.5t-171.5 -37.5q-106 0 -175.5 65.5t-69.5 165.5zM291 244q0 -78 42 -128t97 -50q96 0 157.5 79.5t61.5 188.5v121q-127 0 -242.5 -43t-115.5 -168zM448 1106l70 233q14 51 33.5 67.5t72.5 16.5 q27 0 49.5 -18.5t22.5 -44.5q0 -29 -12 -49q-18 -23 -29 -37l-119 -168h-88z" />
<glyph unicode="&#xe2;" horiz-adv-x="987" d="M109 211q0 190 144 239.5t396 71.5v78q0 143 -29.5 219t-144.5 76q-86 0 -114.5 -30.5t-28.5 -88.5q0 -55 -32 -80.5t-64 -25.5q-43 0 -71 25.5t-28 66.5q0 90 109.5 145.5t230.5 55.5q197 0 264.5 -82t67.5 -244v-508q0 -53 19.5 -74.5t68.5 -21.5q12 0 29.5 3t25.5 5 v-43q-18 -4 -64 -11t-85 -7q-84 0 -119 38.5t-35 110.5q-53 -74 -123.5 -111.5t-171.5 -37.5q-106 0 -175.5 65.5t-69.5 165.5zM233 1106l174 252q29 37 44.5 51t41.5 14q29 0 43.5 -12t42.5 -53l174 -252h-88l-172 141l-172 -141h-88zM291 244q0 -78 42 -128t97 -50 q96 0 157.5 79.5t61.5 188.5v121q-127 0 -242.5 -43t-115.5 -168z" />
<glyph unicode="&#xe3;" horiz-adv-x="987" d="M109 211q0 190 144 239.5t396 71.5v78q0 143 -29.5 219t-144.5 76q-86 0 -114.5 -30.5t-28.5 -88.5q0 -55 -32 -80.5t-64 -25.5q-43 0 -71 25.5t-28 66.5q0 90 109.5 145.5t230.5 55.5q197 0 264.5 -82t67.5 -244v-508q0 -53 19.5 -74.5t68.5 -21.5q12 0 29.5 3t25.5 5 v-43q-18 -4 -64 -11t-85 -7q-84 0 -119 38.5t-35 110.5q-53 -74 -123.5 -111.5t-171.5 -37.5q-106 0 -175.5 65.5t-69.5 165.5zM229 1106q14 109 38.5 171t96.5 62q23 0 41.5 -7t46.5 -23l90 -54q51 -27 78 -26q29 0 41 22.5t21 65.5h73q-12 -100 -35.5 -168t-99.5 -68 q-25 0 -46 8.5t-58 28.5l-107 58q-39 16 -53 16q-23 0 -36 -24.5t-17 -61.5h-74zM291 244q0 -78 42 -128t97 -50q96 0 157.5 79.5t61.5 188.5v121q-127 0 -242.5 -43t-115.5 -168z" />
<glyph unicode="&#xe4;" horiz-adv-x="987" d="M109 211q0 190 144 239.5t396 71.5v78q0 143 -29.5 219t-144.5 76q-86 0 -114.5 -30.5t-28.5 -88.5q0 -55 -32 -80.5t-64 -25.5q-43 0 -71 25.5t-28 66.5q0 90 109.5 145.5t230.5 55.5q197 0 264.5 -82t67.5 -244v-508q0 -53 19.5 -74.5t68.5 -21.5q12 0 29.5 3t25.5 5 v-43q-18 -4 -64 -11t-85 -7q-84 0 -119 38.5t-35 110.5q-53 -74 -123.5 -111.5t-171.5 -37.5q-106 0 -175.5 65.5t-69.5 165.5zM209 1208q0 45 29.5 75t72.5 30q45 0 74.5 -30t29.5 -75q0 -41 -30.5 -71.5t-73.5 -30.5t-72.5 29.5t-29.5 72.5zM291 244q0 -78 42 -128t97 -50 q96 0 157.5 79.5t61.5 188.5v121q-127 0 -242.5 -43t-115.5 -168zM569 1208q0 45 29.5 75t72.5 30q45 0 75 -30t30 -75q0 -43 -30 -72.5t-75 -29.5q-43 0 -72.5 29.5t-29.5 72.5z" />
<glyph unicode="&#xe5;" horiz-adv-x="987" d="M109 211q0 190 144 239.5t396 71.5v78q0 143 -29.5 219t-144.5 76q-86 0 -114.5 -30.5t-28.5 -88.5q0 -55 -32 -80.5t-64 -25.5q-43 0 -71 25.5t-28 66.5q0 90 109.5 145.5t230.5 55.5q197 0 264.5 -82t67.5 -244v-508q0 -53 19.5 -74.5t68.5 -21.5q12 0 29.5 3t25.5 5 v-43q-18 -4 -64 -11t-85 -7q-84 0 -119 38.5t-35 110.5q-53 -74 -123.5 -111.5t-171.5 -37.5q-106 0 -175.5 65.5t-69.5 165.5zM291 244q0 -78 42 -128t97 -50q96 0 157.5 79.5t61.5 188.5v121q-127 0 -242.5 -43t-115.5 -168zM317 1247q0 74 51 125t125 51q72 0 123 -51 t51 -125t-50 -124t-124 -50t-125 49t-51 125zM403 1247q0 -37 25.5 -62.5t64.5 -25.5q37 0 62.5 25.5t25.5 62.5t-24.5 63.5t-63.5 26.5t-64.5 -25.5t-25.5 -64.5z" />
<glyph unicode="&#xe6;" horiz-adv-x="1519" d="M109 221q0 203 157.5 270.5t425.5 67.5v64q0 135 -35.5 203.5t-181.5 68.5q-86 0 -114.5 -30.5t-28.5 -88.5q0 -55 -32 -80.5t-64 -25.5q-43 0 -71 25.5t-28 66.5q0 90 109.5 145.5t230.5 55.5q102 0 181 -37t112 -97q59 61 133 97.5t182 36.5q158 0 261.5 -107.5 t103.5 -320.5v-43h-598q0 -154 93 -295.5t306 -141.5q59 0 96 5.5t76 21.5v-66q-59 -23 -114.5 -29.5t-128.5 -6.5q-135 0 -245 53t-165 147q-51 -104 -134 -152t-237 -48q-117 0 -203.5 70.5t-86.5 170.5zM279 254q0 -92 53 -145.5t143 -53.5q106 0 161.5 79t55.5 200v158 q-199 0 -306 -46.5t-107 -191.5zM852 559h416q0 166 -40 251t-143 85q-123 0 -178 -104.5t-55 -231.5z" />
<glyph unicode="&#xe7;" horiz-adv-x="911" d="M96 500q0 215 107.5 339t335.5 124q127 0 224 -44.5t97 -146.5q0 -45 -27.5 -70.5t-68.5 -25.5q-51 0 -72.5 31.5t-34 85t-46 78t-99.5 24.5q-111 0 -178.5 -83t-67.5 -247q0 -205 125 -357.5t330 -152.5q27 0 43 2t72 15v-60q-45 -16 -95.5 -24t-124.5 -8 q-262 0 -391 137t-129 383zM347 -356q23 -10 48 -15.5t64 -5.5q47 0 78 31t31 82q0 43 -21.5 68.5t-54.5 25.5q-18 0 -33.5 -8t-19.5 -27h-72l70 246h69l-43 -156q18 8 36 12.5t40 4.5q72 0 117 -43t45 -121q0 -94 -59.5 -142.5t-155.5 -48.5q-43 0 -62.5 5.5t-76.5 27.5v64 z" />
<glyph unicode="&#xe8;" horiz-adv-x="911" d="M94 498q0 231 99.5 348t316.5 117q150 0 250 -86t100 -254v-45h-596q0 -182 99.5 -352.5t326.5 -170.5q37 0 71 4t73 23v-66q-59 -23 -114.5 -29.5t-129.5 -6.5q-240 0 -368 131t-128 387zM264 645h414q0 102 -43 176t-152 74q-102 0 -160.5 -86t-58.5 -164zM292 1360 q0 23 22.5 43t49.5 20q53 0 72.5 -16t34.5 -68l69 -233h-88l-121 168q-23 33 -31 49t-8 37z" />
<glyph unicode="&#xe9;" horiz-adv-x="911" d="M94 498q0 231 99.5 348t316.5 117q150 0 250 -86t100 -254v-45h-596q0 -182 99.5 -352.5t326.5 -170.5q37 0 71 4t73 23v-66q-59 -23 -114.5 -29.5t-129.5 -6.5q-240 0 -368 131t-128 387zM264 645h414q0 102 -43 176t-152 74q-102 0 -160.5 -86t-58.5 -164zM442 1106 l70 233q14 51 33.5 67.5t72.5 16.5q27 0 49.5 -18.5t22.5 -44.5q0 -29 -12 -49q-18 -23 -29 -37l-119 -168h-88z" />
<glyph unicode="&#xea;" horiz-adv-x="911" d="M94 498q0 231 99.5 348t316.5 117q150 0 250 -86t100 -254v-45h-596q0 -182 99.5 -352.5t326.5 -170.5q37 0 71 4t73 23v-66q-59 -23 -114.5 -29.5t-129.5 -6.5q-240 0 -368 131t-128 387zM227 1106l174 252q29 37 44.5 51t41.5 14q29 0 43.5 -12t42.5 -53l174 -252h-88 l-172 141l-172 -141h-88zM264 645h414q0 102 -43 176t-152 74q-102 0 -160.5 -86t-58.5 -164z" />
<glyph unicode="&#xeb;" horiz-adv-x="911" d="M94 498q0 231 99.5 348t316.5 117q150 0 250 -86t100 -254v-45h-596q0 -182 99.5 -352.5t326.5 -170.5q37 0 71 4t73 23v-66q-59 -23 -114.5 -29.5t-129.5 -6.5q-240 0 -368 131t-128 387zM193 1208q0 45 29.5 75t72.5 30q45 0 74.5 -30t29.5 -75q0 -41 -30.5 -71.5 t-73.5 -30.5t-72.5 29.5t-29.5 72.5zM264 645h414q0 102 -43 176t-152 74q-102 0 -160.5 -86t-58.5 -164zM553 1208q0 45 29.5 75t72.5 30q45 0 75 -30t30 -75q0 -43 -30 -72.5t-75 -29.5q-43 0 -72.5 29.5t-29.5 72.5z" />
<glyph unicode="&#xec;" horiz-adv-x="569" d="M68 0v35q78 0 116.5 28.5t38.5 122.5v559q0 82 -44 108t-111 26v34l315 50v-777q0 -74 28.5 -112.5t127.5 -38.5v-35h-471zM79 1360q0 23 22.5 43t49.5 20q53 0 72.5 -16t34.5 -68l69 -233h-88l-121 168q-23 33 -31 49t-8 37z" />
<glyph unicode="&#xed;" horiz-adv-x="569" d="M68 0v35q78 0 116.5 28.5t38.5 122.5v559q0 82 -44 108t-111 26v34l315 50v-777q0 -74 28.5 -112.5t127.5 -38.5v-35h-471zM239 1106l70 233q14 51 33.5 67.5t72.5 16.5q27 0 49.5 -18.5t22.5 -44.5q0 -29 -12 -49q-18 -23 -29 -37l-119 -168h-88z" />
<glyph unicode="&#xee;" horiz-adv-x="569" d="M24 1106l174 252q29 37 44.5 51t41.5 14q29 0 43.5 -12t42.5 -53l174 -252h-88l-172 141l-172 -141h-88zM68 0v35q78 0 116.5 28.5t38.5 122.5v559q0 82 -44 108t-111 26v34l315 50v-777q0 -74 28.5 -112.5t127.5 -38.5v-35h-471z" />
<glyph unicode="&#xef;" horiz-adv-x="569" d="M0 1208q0 45 29.5 75t72.5 30q45 0 74.5 -30t29.5 -75q0 -41 -30.5 -71.5t-73.5 -30.5t-72.5 29.5t-29.5 72.5zM68 0v35q78 0 116.5 28.5t38.5 122.5v559q0 82 -44 108t-111 26v34l315 50v-777q0 -74 28.5 -112.5t127.5 -38.5v-35h-471zM360 1208q0 45 29.5 75t72.5 30 q45 0 75 -30t30 -75q0 -43 -30 -72.5t-75 -29.5q-43 0 -72.5 29.5t-29.5 72.5z" />
<glyph unicode="&#xf1;" horiz-adv-x="1138" d="M72 0v35q78 0 116.5 28.5t38.5 122.5v559q0 80 -45 107t-110 27v34l315 50v-271q45 104 120 187.5t208 83.5q152 0 194.5 -72t42.5 -238v-467q0 -74 29 -112.5t127 -38.5v-35h-471v35q78 0 117 28.5t39 122.5v422q0 125 -12.5 190.5t-125.5 65.5q-92 0 -180 -139 t-88 -287v-252q0 -74 28.5 -112.5t127.5 -38.5v-35h-471zM305 1106q14 109 38.5 171t96.5 62q23 0 41.5 -7t46.5 -23l90 -54q51 -27 78 -26q29 0 41 22.5t21 65.5h73q-12 -100 -35.5 -168t-99.5 -68q-25 0 -46 8.5t-58 28.5l-107 58q-39 16 -53 16q-23 0 -36 -24.5 t-17 -61.5h-74z" />
<glyph unicode="&#xf2;" d="M104 471q0 229 115 360.5t313 131.5q197 0 313 -131.5t116 -360.5t-115 -360t-314 -131q-197 0 -312.5 131t-115.5 360zM287 471q0 -168 54 -296t191 -128t191.5 129t54.5 295q0 168 -54 296t-192 128q-137 0 -191 -129t-54 -295zM327 1360q0 23 22.5 43t49.5 20 q53 0 72.5 -16t34.5 -68l69 -233h-88l-121 168q-23 33 -31 49t-8 37z" />
<glyph unicode="&#xf3;" d="M104 471q0 229 115 360.5t313 131.5q197 0 313 -131.5t116 -360.5t-115 -360t-314 -131q-197 0 -312.5 131t-115.5 360zM287 471q0 -168 54 -296t191 -128t191.5 129t54.5 295q0 168 -54 296t-192 128q-137 0 -191 -129t-54 -295zM487 1106l70 233q14 51 33.5 67.5 t72.5 16.5q27 0 49.5 -18.5t22.5 -44.5q0 -29 -12 -49q-18 -23 -29 -37l-119 -168h-88z" />
<glyph unicode="&#xf4;" d="M104 471q0 229 115 360.5t313 131.5q197 0 313 -131.5t116 -360.5t-115 -360t-314 -131q-197 0 -312.5 131t-115.5 360zM272 1106l174 252q29 37 44.5 51t41.5 14q29 0 43.5 -12t42.5 -53l174 -252h-88l-172 141l-172 -141h-88zM287 471q0 -168 54 -296t191 -128 t191.5 129t54.5 295q0 168 -54 296t-192 128q-137 0 -191 -129t-54 -295z" />
<glyph unicode="&#xf5;" d="M104 471q0 229 115 360.5t313 131.5q197 0 313 -131.5t116 -360.5t-115 -360t-314 -131q-197 0 -312.5 131t-115.5 360zM268 1106q14 109 38.5 171t96.5 62q23 0 41.5 -7t46.5 -23l90 -54q51 -27 78 -26q29 0 41 22.5t21 65.5h73q-12 -100 -35.5 -168t-99.5 -68 q-25 0 -46 8.5t-58 28.5l-107 58q-39 16 -53 16q-23 0 -36 -24.5t-17 -61.5h-74zM287 471q0 -168 54 -296t191 -128t191.5 129t54.5 295q0 168 -54 296t-192 128q-137 0 -191 -129t-54 -295z" />
<glyph unicode="&#xf6;" d="M104 471q0 229 115 360.5t313 131.5q197 0 313 -131.5t116 -360.5t-115 -360t-314 -131q-197 0 -312.5 131t-115.5 360zM248 1208q0 45 29.5 75t72.5 30q45 0 74.5 -30t29.5 -75q0 -41 -30.5 -71.5t-73.5 -30.5t-72.5 29.5t-29.5 72.5zM287 471q0 -168 54 -296t191 -128 t191.5 129t54.5 295q0 168 -54 296t-192 128q-137 0 -191 -129t-54 -295zM608 1208q0 45 29.5 75t72.5 30q45 0 75 -30t30 -75q0 -43 -30 -72.5t-75 -29.5q-43 0 -72.5 29.5t-29.5 72.5z" />
<glyph unicode="&#xf7;" horiz-adv-x="1177" d="M117 420v121h944v-121h-944zM477 111q0 49 31 79.5t80 30.5t79.5 -30.5t30.5 -79.5t-30.5 -80t-79.5 -31t-80 31t-31 80zM477 850q0 49 31 80t80 31t79.5 -31t30.5 -80t-30.5 -80t-79.5 -31t-80 31t-31 80z" />
<glyph unicode="&#xf8;" d="M104 471q0 229 115 360.5t313 131.5q123 0 211 -52l80 127l54 -34l-80 -127q164 -129 164 -406q0 -229 -115 -360t-314 -131q-150 0 -256 77l-92 -147l-55 33l100 157q-125 131 -125 371zM287 471q0 -61 7 -117.5t23 -113.5l369 581q-29 35 -65.5 54.5t-88.5 19.5 q-137 0 -191 -130t-54 -294zM346 166q31 -57 75 -88t111 -31q137 0 191.5 130t54.5 294q0 82 -11 153.5t-44 137.5z" />
<glyph unicode="&#xf9;" horiz-adv-x="1101" d="M29 879v34l315 50v-629q0 -250 164 -250q98 0 174 117.5t76 261.5v282q0 82 -44 108t-112 26v34l316 50v-766q0 -82 44 -108t111 -26v-34l-315 -49v245q-49 -106 -109.5 -175.5t-202.5 -69.5q-127 0 -194.5 81.5t-67.5 227.5v456q0 82 -44 108t-111 26zM346 1360 q0 23 22.5 43t49.5 20q53 0 72.5 -16t34.5 -68l69 -233h-88l-121 168q-23 33 -31 49t-8 37z" />
<glyph unicode="&#xfa;" horiz-adv-x="1101" d="M29 879v34l315 50v-629q0 -250 164 -250q98 0 174 117.5t76 261.5v282q0 82 -44 108t-112 26v34l316 50v-766q0 -82 44 -108t111 -26v-34l-315 -49v245q-49 -106 -109.5 -175.5t-202.5 -69.5q-127 0 -194.5 81.5t-67.5 227.5v456q0 82 -44 108t-111 26zM506 1106l70 233 q14 51 33.5 67.5t72.5 16.5q27 0 49.5 -18.5t22.5 -44.5q0 -29 -12 -49q-18 -23 -29 -37l-119 -168h-88z" />
<glyph unicode="&#xfb;" horiz-adv-x="1101" d="M29 879v34l315 50v-629q0 -250 164 -250q98 0 174 117.5t76 261.5v282q0 82 -44 108t-112 26v34l316 50v-766q0 -82 44 -108t111 -26v-34l-315 -49v245q-49 -106 -109.5 -175.5t-202.5 -69.5q-127 0 -194.5 81.5t-67.5 227.5v456q0 82 -44 108t-111 26zM291 1106l174 252 q29 37 44.5 51t41.5 14q29 0 43.5 -12t42.5 -53l174 -252h-88l-172 141l-172 -141h-88z" />
<glyph unicode="&#xfc;" horiz-adv-x="1101" d="M29 879v34l315 50v-629q0 -250 164 -250q98 0 174 117.5t76 261.5v282q0 82 -44 108t-112 26v34l316 50v-766q0 -82 44 -108t111 -26v-34l-315 -49v245q-49 -106 -109.5 -175.5t-202.5 -69.5q-127 0 -194.5 81.5t-67.5 227.5v456q0 82 -44 108t-111 26zM267 1208 q0 45 29.5 75t72.5 30q45 0 74.5 -30t29.5 -75q0 -41 -30.5 -71.5t-73.5 -30.5t-72.5 29.5t-29.5 72.5zM627 1208q0 45 29.5 75t72.5 30q45 0 75 -30t30 -75q0 -43 -30 -72.5t-75 -29.5q-43 0 -72.5 29.5t-29.5 72.5z" />
<glyph unicode="&#xfd;" d="M-29 907v35h457v-35q-57 0 -83 -11t-26 -44q0 -45 37 -129l222 -510l172 449q16 43 37.5 100t21.5 78q0 68 -113 67v35h387v-35q-74 0 -117.5 -42t-78.5 -132l-303 -782q-84 -219 -157 -301t-204 -82q-94 0 -152.5 28.5t-58.5 102.5q0 41 25.5 66.5t71.5 25.5 q68 0 92 -73.5t78 -73.5q39 0 78.5 54t74.5 144l66 158l-310 713q-51 119 -91 156.5t-126 37.5zM518 1106l70 233q14 51 33.5 67.5t72.5 16.5q27 0 49.5 -18.5t22.5 -44.5q0 -29 -12 -49q-18 -23 -29 -37l-119 -168h-88z" />
<glyph unicode="&#xfe;" d="M14 1339v35l316 49v-614q20 49 91 101.5t146 52.5q207 0 300.5 -140.5t93.5 -351.5q0 -217 -92.5 -354t-301.5 -137q-84 0 -144.5 49t-88.5 108l-4 -522l-160 -23v1614q0 78 -43 102.5t-113 30.5zM330 471q0 -168 51 -292t160 -124q127 0 182 128t55 288 q0 227 -64.5 321.5t-172.5 94.5q-111 0 -161 -128t-50 -288z" />
<glyph unicode="&#xff;" d="M-29 907v35h457v-35q-57 0 -83 -11t-26 -44q0 -45 37 -129l222 -510l172 449q16 43 37.5 100t21.5 78q0 68 -113 67v35h387v-35q-74 0 -117.5 -42t-78.5 -132l-303 -782q-84 -219 -157 -301t-204 -82q-94 0 -152.5 28.5t-58.5 102.5q0 41 25.5 66.5t71.5 25.5 q68 0 92 -73.5t78 -73.5q39 0 78.5 54t74.5 144l66 158l-310 713q-51 119 -91 156.5t-126 37.5zM269 1208q0 45 29.5 75t72.5 30q45 0 74.5 -30t29.5 -75q0 -41 -30.5 -71.5t-73.5 -30.5t-72.5 29.5t-29.5 72.5zM629 1208q0 45 29.5 75t72.5 30q45 0 75 -30t30 -75 q0 -43 -30 -72.5t-75 -29.5q-43 0 -72.5 29.5t-29.5 72.5z" />
<glyph unicode="&#x152;" horiz-adv-x="1822" d="M117 682q0 330 121.5 516t416.5 186q35 0 67 -1t81 -6t83 -9t52 -4h748l14 -250h-51q-18 92 -72.5 131t-165.5 39h-180q-78 0 -94.5 -27.5t-16.5 -144.5v-358h264q106 0 146.5 33.5t40.5 138.5h43v-424h-43q0 88 -42 130t-145 42h-264v-422q0 -121 16.5 -146.5 t94.5 -25.5h196q119 0 174.5 42t77.5 148h52l-15 -270h-778q-47 0 -105.5 -7t-99.5 -10t-78 -3q-293 0 -415.5 187t-122.5 515zM319 682q0 -375 87.5 -499t248.5 -124q154 0 218.5 44t64.5 171v816q0 113 -67.5 164t-215.5 51q-205 0 -270.5 -166t-65.5 -457z" />
<glyph unicode="&#x153;" horiz-adv-x="1595" d="M104 471q0 229 115 360.5t313 131.5q240 0 320 -168q35 70 117 119t190 49q158 0 260.5 -102.5t102.5 -325.5v-46h-594q0 -139 106.5 -286.5t288.5 -147.5q59 0 97 5.5t75 21.5v-66q-59 -23 -112.5 -29.5t-129.5 -6.5q-125 0 -227 49t-154 137q-51 -96 -133 -141 t-207 -45q-197 0 -312.5 131t-115.5 360zM287 471q0 -168 54 -296t191 -128q135 0 189.5 130t54.5 294q0 166 -53 295t-191 129q-137 0 -191 -129t-54 -295zM928 557h411q0 162 -43 250t-137 88q-123 0 -177 -103.5t-54 -234.5z" />
<glyph unicode="&#x178;" horiz-adv-x="1290" d="M-20 1323v41h563v-41q-76 0 -104.5 -15.5t-28.5 -60.5q0 -27 34 -86l230 -397l241 397q20 31 31.5 54.5t11.5 37.5q0 70 -129 70v41h482v-41q-86 0 -143.5 -33t-110.5 -121l-324 -530v-430q0 -106 41 -137t137 -31v-41h-538v41q98 0 138 29.5t40 138.5v430l-320 530 q-53 88 -107 121t-144 33zM381 1630q0 45 29.5 75t72.5 30q45 0 74.5 -30t29.5 -75q0 -41 -30.5 -71.5t-73.5 -30.5t-72.5 29.5t-29.5 72.5zM741 1630q0 45 29.5 75t72.5 30q45 0 75 -30t30 -75q0 -43 -30 -72.5t-75 -29.5q-43 0 -72.5 29.5t-29.5 72.5z" />
<glyph unicode="&#x2000;" horiz-adv-x="922" />
<glyph unicode="&#x2001;" horiz-adv-x="1845" />
<glyph unicode="&#x2002;" horiz-adv-x="922" />
<glyph unicode="&#x2003;" horiz-adv-x="1845" />
<glyph unicode="&#x2004;" horiz-adv-x="615" />
<glyph unicode="&#x2005;" horiz-adv-x="461" />
<glyph unicode="&#x2006;" horiz-adv-x="307" />
<glyph unicode="&#x2007;" horiz-adv-x="307" />
<glyph unicode="&#x2008;" horiz-adv-x="230" />
<glyph unicode="&#x2009;" horiz-adv-x="369" />
<glyph unicode="&#x200a;" horiz-adv-x="102" />
<glyph unicode="&#x2010;" horiz-adv-x="835" d="M111 432v129h614v-129h-614z" />
<glyph unicode="&#x2011;" horiz-adv-x="835" d="M111 432v129h614v-129h-614z" />
<glyph unicode="&#x2012;" horiz-adv-x="835" d="M111 432v129h614v-129h-614z" />
<glyph unicode="&#x2013;" d="M111 432v117h841v-117h-841z" />
<glyph unicode="&#x2014;" horiz-adv-x="1404" d="M104 432v117h1194v-117h-1194z" />
<glyph unicode="&#x2018;" horiz-adv-x="493" d="M102 1083q0 96 48.5 176t97.5 125h67q-35 -37 -65.5 -88t-30.5 -98q0 -33 39 -37q94 0 94 -106q0 -49 -33.5 -81t-89.5 -32q-55 0 -91 35t-36 106z" />
<glyph unicode="&#x2019;" horiz-adv-x="493" d="M143 1272q0 51 33 81.5t88 30.5t92 -34.5t37 -106.5t-40 -155.5t-105 -145.5h-68q35 39 65.5 89t30.5 99q0 35 -40 35q-43 0 -68 29t-25 78z" />
<glyph unicode="&#x201a;" horiz-adv-x="493" d="M143 125q0 49 34 81t87 32q55 0 92 -35t37 -107t-40 -155.5t-105 -145.5h-68q35 37 65.5 88t30.5 99q0 37 -40 36q-43 0 -68 29t-25 78z" />
<glyph unicode="&#x201c;" horiz-adv-x="835" d="M102 1083q0 96 48.5 176t97.5 125h67q-35 -37 -65.5 -88t-30.5 -98q0 -33 39 -37q94 0 94 -106q0 -49 -33.5 -81t-89.5 -32q-55 0 -91 35t-36 106zM442 1083q0 72 40 156t106 145h67q-35 -37 -65.5 -88t-30.5 -98q0 -33 39 -37q94 0 94 -106q0 -47 -34.5 -80t-88.5 -33 q-55 0 -91 35t-36 106z" />
<glyph unicode="&#x201d;" horiz-adv-x="835" d="M143 1272q0 51 33 81.5t88 30.5t92 -34.5t37 -106.5t-40 -155.5t-105 -145.5h-68q35 39 65.5 89t30.5 99q0 35 -40 35q-43 0 -68 29t-25 78zM483 1272q0 51 33 81.5t88 30.5t92 -34.5t37 -106.5t-40 -155.5t-105 -145.5h-68q35 39 65.5 89t30.5 99q0 35 -41 35 q-43 0 -67.5 29t-24.5 78z" />
<glyph unicode="&#x201e;" horiz-adv-x="835" d="M143 125q0 49 34 81t87 32q55 0 92 -35t37 -107t-40 -155.5t-105 -145.5h-68q35 37 65.5 88t30.5 99q0 37 -40 36q-43 0 -68 29t-25 78zM483 125q0 49 34 81t87 32q55 0 92 -35t37 -107t-40 -155.5t-105 -145.5h-68q35 37 65.5 88t30.5 99q0 37 -41 36q-43 0 -67.5 29 t-24.5 78z" />
<glyph unicode="&#x2022;" d="M162 682q0 154 108.5 262.5t261.5 108.5q154 0 262.5 -108.5t108.5 -262.5t-108.5 -262.5t-262.5 -108.5q-152 0 -261 107.5t-109 263.5z" />
<glyph unicode="&#x2026;" horiz-adv-x="1480" d="M127 119q0 49 35 84t84 35t84 -35t35 -84t-35 -84t-84 -35t-84 35t-35 84zM621 119q0 49 34.5 84t83.5 35t84 -35t35 -84t-35 -84t-84 -35t-83.5 35t-34.5 84zM1114 119q0 49 35 84t84 35t84 -35t35 -84t-35 -84t-84 -35t-84 35t-35 84z" />
<glyph unicode="&#x202f;" horiz-adv-x="369" />
<glyph unicode="&#x2039;" horiz-adv-x="493" d="M84 487l215 369h104l-122 -369l122 -370h-104z" />
<glyph unicode="&#x203a;" horiz-adv-x="493" d="M88 117l123 370l-123 369h105l215 -369l-215 -370h-105z" />
<glyph unicode="&#x205f;" horiz-adv-x="461" />
<glyph unicode="&#x2122;" horiz-adv-x="1253" d="M-18 1155l16 209h473l10 -209h-37q-31 80 -49 117t-110 53v-391q0 -61 16 -72.5t82 -19.5v-39h-313v39q66 6 87 19t21 73v391q-61 -12 -91 -36.5t-71 -133.5h-34zM508 803v39q61 10 77.5 23.5t16.5 68.5v319q0 51 -12 61.5t-58 10.5v39h205l113 -371l133 371h221v-39 q-49 -6 -67.5 -12t-18.5 -72v-307q0 -57 14.5 -71.5t61.5 -20.5v-39h-254v39q43 8 57.5 22.5t14.5 69.5v377l-176 -508h-33l-150 489l-4 -358q0 -55 10.5 -69.5t49.5 -22.5v-39h-201z" />
<glyph unicode="&#x25fc;" horiz-adv-x="942" d="M0 0v942h942v-942h-942z" />
</font>
</defs>
</svg>
